%TF.GenerationSoftware,KiCad,Pcbnew,9.0.0*%
%TF.CreationDate,2026-08-14T17:38:38-03:00*%
%TF.ProjectId,PCB_Keyboard,5043425f-4b65-4796-926f-6172642e6b69,rev?*%
%TF.SameCoordinates,Original*%
%TF.FileFunction,Legend,Top*%
%TF.FilePolarity,Positive*%
%FSLAX46Y46*%
G04 Gerber Fmt 4.6, Leading zero omitted, Abs format (unit mm)*
G04 Created by KiCad (PCBNEW 9.0.0) date 2026-08-14 17:38:38*
%MOMM*%
%LPD*%
G01*
G04 APERTURE LIST*
%ADD10C,0.150000*%
%ADD11C,0.120000*%
G04 APERTURE END LIST*
D10*
X104753819Y-73635094D02*
X103753819Y-73635094D01*
X103753819Y-73635094D02*
X103753819Y-73396999D01*
X103753819Y-73396999D02*
X103801438Y-73254142D01*
X103801438Y-73254142D02*
X103896676Y-73158904D01*
X103896676Y-73158904D02*
X103991914Y-73111285D01*
X103991914Y-73111285D02*
X104182390Y-73063666D01*
X104182390Y-73063666D02*
X104325247Y-73063666D01*
X104325247Y-73063666D02*
X104515723Y-73111285D01*
X104515723Y-73111285D02*
X104610961Y-73158904D01*
X104610961Y-73158904D02*
X104706200Y-73254142D01*
X104706200Y-73254142D02*
X104753819Y-73396999D01*
X104753819Y-73396999D02*
X104753819Y-73635094D01*
X104753819Y-72111285D02*
X104753819Y-72682713D01*
X104753819Y-72396999D02*
X103753819Y-72396999D01*
X103753819Y-72396999D02*
X103896676Y-72492237D01*
X103896676Y-72492237D02*
X103991914Y-72587475D01*
X103991914Y-72587475D02*
X104039533Y-72682713D01*
X84288333Y-76273830D02*
X84240714Y-76321450D01*
X84240714Y-76321450D02*
X84097857Y-76369069D01*
X84097857Y-76369069D02*
X84002619Y-76369069D01*
X84002619Y-76369069D02*
X83859762Y-76321450D01*
X83859762Y-76321450D02*
X83764524Y-76226211D01*
X83764524Y-76226211D02*
X83716905Y-76130973D01*
X83716905Y-76130973D02*
X83669286Y-75940497D01*
X83669286Y-75940497D02*
X83669286Y-75797640D01*
X83669286Y-75797640D02*
X83716905Y-75607164D01*
X83716905Y-75607164D02*
X83764524Y-75511926D01*
X83764524Y-75511926D02*
X83859762Y-75416688D01*
X83859762Y-75416688D02*
X84002619Y-75369069D01*
X84002619Y-75369069D02*
X84097857Y-75369069D01*
X84097857Y-75369069D02*
X84240714Y-75416688D01*
X84240714Y-75416688D02*
X84288333Y-75464307D01*
X85145476Y-75702402D02*
X85145476Y-76369069D01*
X84907381Y-75321450D02*
X84669286Y-76035735D01*
X84669286Y-76035735D02*
X85288333Y-76035735D01*
X87068819Y-83478666D02*
X86592628Y-83811999D01*
X87068819Y-84050094D02*
X86068819Y-84050094D01*
X86068819Y-84050094D02*
X86068819Y-83669142D01*
X86068819Y-83669142D02*
X86116438Y-83573904D01*
X86116438Y-83573904D02*
X86164057Y-83526285D01*
X86164057Y-83526285D02*
X86259295Y-83478666D01*
X86259295Y-83478666D02*
X86402152Y-83478666D01*
X86402152Y-83478666D02*
X86497390Y-83526285D01*
X86497390Y-83526285D02*
X86545009Y-83573904D01*
X86545009Y-83573904D02*
X86592628Y-83669142D01*
X86592628Y-83669142D02*
X86592628Y-84050094D01*
X87068819Y-82526285D02*
X87068819Y-83097713D01*
X87068819Y-82811999D02*
X86068819Y-82811999D01*
X86068819Y-82811999D02*
X86211676Y-82907237D01*
X86211676Y-82907237D02*
X86306914Y-83002475D01*
X86306914Y-83002475D02*
X86354533Y-83097713D01*
X70445333Y-74495830D02*
X70397714Y-74543450D01*
X70397714Y-74543450D02*
X70254857Y-74591069D01*
X70254857Y-74591069D02*
X70159619Y-74591069D01*
X70159619Y-74591069D02*
X70016762Y-74543450D01*
X70016762Y-74543450D02*
X69921524Y-74448211D01*
X69921524Y-74448211D02*
X69873905Y-74352973D01*
X69873905Y-74352973D02*
X69826286Y-74162497D01*
X69826286Y-74162497D02*
X69826286Y-74019640D01*
X69826286Y-74019640D02*
X69873905Y-73829164D01*
X69873905Y-73829164D02*
X69921524Y-73733926D01*
X69921524Y-73733926D02*
X70016762Y-73638688D01*
X70016762Y-73638688D02*
X70159619Y-73591069D01*
X70159619Y-73591069D02*
X70254857Y-73591069D01*
X70254857Y-73591069D02*
X70397714Y-73638688D01*
X70397714Y-73638688D02*
X70445333Y-73686307D01*
X70826286Y-73686307D02*
X70873905Y-73638688D01*
X70873905Y-73638688D02*
X70969143Y-73591069D01*
X70969143Y-73591069D02*
X71207238Y-73591069D01*
X71207238Y-73591069D02*
X71302476Y-73638688D01*
X71302476Y-73638688D02*
X71350095Y-73686307D01*
X71350095Y-73686307D02*
X71397714Y-73781545D01*
X71397714Y-73781545D02*
X71397714Y-73876783D01*
X71397714Y-73876783D02*
X71350095Y-74019640D01*
X71350095Y-74019640D02*
X70778667Y-74591069D01*
X70778667Y-74591069D02*
X71397714Y-74591069D01*
X74336069Y-70691666D02*
X73859878Y-71024999D01*
X74336069Y-71263094D02*
X73336069Y-71263094D01*
X73336069Y-71263094D02*
X73336069Y-70882142D01*
X73336069Y-70882142D02*
X73383688Y-70786904D01*
X73383688Y-70786904D02*
X73431307Y-70739285D01*
X73431307Y-70739285D02*
X73526545Y-70691666D01*
X73526545Y-70691666D02*
X73669402Y-70691666D01*
X73669402Y-70691666D02*
X73764640Y-70739285D01*
X73764640Y-70739285D02*
X73812259Y-70786904D01*
X73812259Y-70786904D02*
X73859878Y-70882142D01*
X73859878Y-70882142D02*
X73859878Y-71263094D01*
X73431307Y-70310713D02*
X73383688Y-70263094D01*
X73383688Y-70263094D02*
X73336069Y-70167856D01*
X73336069Y-70167856D02*
X73336069Y-69929761D01*
X73336069Y-69929761D02*
X73383688Y-69834523D01*
X73383688Y-69834523D02*
X73431307Y-69786904D01*
X73431307Y-69786904D02*
X73526545Y-69739285D01*
X73526545Y-69739285D02*
X73621783Y-69739285D01*
X73621783Y-69739285D02*
X73764640Y-69786904D01*
X73764640Y-69786904D02*
X74336069Y-70358332D01*
X74336069Y-70358332D02*
X74336069Y-69739285D01*
X72985333Y-94339580D02*
X72937714Y-94387200D01*
X72937714Y-94387200D02*
X72794857Y-94434819D01*
X72794857Y-94434819D02*
X72699619Y-94434819D01*
X72699619Y-94434819D02*
X72556762Y-94387200D01*
X72556762Y-94387200D02*
X72461524Y-94291961D01*
X72461524Y-94291961D02*
X72413905Y-94196723D01*
X72413905Y-94196723D02*
X72366286Y-94006247D01*
X72366286Y-94006247D02*
X72366286Y-93863390D01*
X72366286Y-93863390D02*
X72413905Y-93672914D01*
X72413905Y-93672914D02*
X72461524Y-93577676D01*
X72461524Y-93577676D02*
X72556762Y-93482438D01*
X72556762Y-93482438D02*
X72699619Y-93434819D01*
X72699619Y-93434819D02*
X72794857Y-93434819D01*
X72794857Y-93434819D02*
X72937714Y-93482438D01*
X72937714Y-93482438D02*
X72985333Y-93530057D01*
X73890095Y-93434819D02*
X73413905Y-93434819D01*
X73413905Y-93434819D02*
X73366286Y-93911009D01*
X73366286Y-93911009D02*
X73413905Y-93863390D01*
X73413905Y-93863390D02*
X73509143Y-93815771D01*
X73509143Y-93815771D02*
X73747238Y-93815771D01*
X73747238Y-93815771D02*
X73842476Y-93863390D01*
X73842476Y-93863390D02*
X73890095Y-93911009D01*
X73890095Y-93911009D02*
X73937714Y-94006247D01*
X73937714Y-94006247D02*
X73937714Y-94244342D01*
X73937714Y-94244342D02*
X73890095Y-94339580D01*
X73890095Y-94339580D02*
X73842476Y-94387200D01*
X73842476Y-94387200D02*
X73747238Y-94434819D01*
X73747238Y-94434819D02*
X73509143Y-94434819D01*
X73509143Y-94434819D02*
X73413905Y-94387200D01*
X73413905Y-94387200D02*
X73366286Y-94339580D01*
X124438819Y-93848094D02*
X123438819Y-93848094D01*
X123438819Y-93848094D02*
X123438819Y-93609999D01*
X123438819Y-93609999D02*
X123486438Y-93467142D01*
X123486438Y-93467142D02*
X123581676Y-93371904D01*
X123581676Y-93371904D02*
X123676914Y-93324285D01*
X123676914Y-93324285D02*
X123867390Y-93276666D01*
X123867390Y-93276666D02*
X124010247Y-93276666D01*
X124010247Y-93276666D02*
X124200723Y-93324285D01*
X124200723Y-93324285D02*
X124295961Y-93371904D01*
X124295961Y-93371904D02*
X124391200Y-93467142D01*
X124391200Y-93467142D02*
X124438819Y-93609999D01*
X124438819Y-93609999D02*
X124438819Y-93848094D01*
X123772152Y-92419523D02*
X124438819Y-92419523D01*
X123391200Y-92657618D02*
X124105485Y-92895713D01*
X124105485Y-92895713D02*
X124105485Y-92276666D01*
X71446819Y-70699916D02*
X70970628Y-71033249D01*
X71446819Y-71271344D02*
X70446819Y-71271344D01*
X70446819Y-71271344D02*
X70446819Y-70890392D01*
X70446819Y-70890392D02*
X70494438Y-70795154D01*
X70494438Y-70795154D02*
X70542057Y-70747535D01*
X70542057Y-70747535D02*
X70637295Y-70699916D01*
X70637295Y-70699916D02*
X70780152Y-70699916D01*
X70780152Y-70699916D02*
X70875390Y-70747535D01*
X70875390Y-70747535D02*
X70923009Y-70795154D01*
X70923009Y-70795154D02*
X70970628Y-70890392D01*
X70970628Y-70890392D02*
X70970628Y-71271344D01*
X70446819Y-70366582D02*
X70446819Y-69747535D01*
X70446819Y-69747535D02*
X70827771Y-70080868D01*
X70827771Y-70080868D02*
X70827771Y-69938011D01*
X70827771Y-69938011D02*
X70875390Y-69842773D01*
X70875390Y-69842773D02*
X70923009Y-69795154D01*
X70923009Y-69795154D02*
X71018247Y-69747535D01*
X71018247Y-69747535D02*
X71256342Y-69747535D01*
X71256342Y-69747535D02*
X71351580Y-69795154D01*
X71351580Y-69795154D02*
X71399200Y-69842773D01*
X71399200Y-69842773D02*
X71446819Y-69938011D01*
X71446819Y-69938011D02*
X71446819Y-70223725D01*
X71446819Y-70223725D02*
X71399200Y-70318963D01*
X71399200Y-70318963D02*
X71351580Y-70366582D01*
X67669580Y-86362916D02*
X67717200Y-86410535D01*
X67717200Y-86410535D02*
X67764819Y-86553392D01*
X67764819Y-86553392D02*
X67764819Y-86648630D01*
X67764819Y-86648630D02*
X67717200Y-86791487D01*
X67717200Y-86791487D02*
X67621961Y-86886725D01*
X67621961Y-86886725D02*
X67526723Y-86934344D01*
X67526723Y-86934344D02*
X67336247Y-86981963D01*
X67336247Y-86981963D02*
X67193390Y-86981963D01*
X67193390Y-86981963D02*
X67002914Y-86934344D01*
X67002914Y-86934344D02*
X66907676Y-86886725D01*
X66907676Y-86886725D02*
X66812438Y-86791487D01*
X66812438Y-86791487D02*
X66764819Y-86648630D01*
X66764819Y-86648630D02*
X66764819Y-86553392D01*
X66764819Y-86553392D02*
X66812438Y-86410535D01*
X66812438Y-86410535D02*
X66860057Y-86362916D01*
X67764819Y-85410535D02*
X67764819Y-85981963D01*
X67764819Y-85696249D02*
X66764819Y-85696249D01*
X66764819Y-85696249D02*
X66907676Y-85791487D01*
X66907676Y-85791487D02*
X67002914Y-85886725D01*
X67002914Y-85886725D02*
X67050533Y-85981963D01*
X78687809Y-95895878D02*
X78687809Y-96372069D01*
X78354476Y-95372069D02*
X78687809Y-95895878D01*
X78687809Y-95895878D02*
X79021142Y-95372069D01*
X79878285Y-96372069D02*
X79306857Y-96372069D01*
X79592571Y-96372069D02*
X79592571Y-95372069D01*
X79592571Y-95372069D02*
X79497333Y-95514926D01*
X79497333Y-95514926D02*
X79402095Y-95610164D01*
X79402095Y-95610164D02*
X79306857Y-95657783D01*
X68586905Y-63661819D02*
X68586905Y-64471342D01*
X68586905Y-64471342D02*
X68634524Y-64566580D01*
X68634524Y-64566580D02*
X68682143Y-64614200D01*
X68682143Y-64614200D02*
X68777381Y-64661819D01*
X68777381Y-64661819D02*
X68967857Y-64661819D01*
X68967857Y-64661819D02*
X69063095Y-64614200D01*
X69063095Y-64614200D02*
X69110714Y-64566580D01*
X69110714Y-64566580D02*
X69158333Y-64471342D01*
X69158333Y-64471342D02*
X69158333Y-63661819D01*
X69586905Y-64614200D02*
X69729762Y-64661819D01*
X69729762Y-64661819D02*
X69967857Y-64661819D01*
X69967857Y-64661819D02*
X70063095Y-64614200D01*
X70063095Y-64614200D02*
X70110714Y-64566580D01*
X70110714Y-64566580D02*
X70158333Y-64471342D01*
X70158333Y-64471342D02*
X70158333Y-64376104D01*
X70158333Y-64376104D02*
X70110714Y-64280866D01*
X70110714Y-64280866D02*
X70063095Y-64233247D01*
X70063095Y-64233247D02*
X69967857Y-64185628D01*
X69967857Y-64185628D02*
X69777381Y-64138009D01*
X69777381Y-64138009D02*
X69682143Y-64090390D01*
X69682143Y-64090390D02*
X69634524Y-64042771D01*
X69634524Y-64042771D02*
X69586905Y-63947533D01*
X69586905Y-63947533D02*
X69586905Y-63852295D01*
X69586905Y-63852295D02*
X69634524Y-63757057D01*
X69634524Y-63757057D02*
X69682143Y-63709438D01*
X69682143Y-63709438D02*
X69777381Y-63661819D01*
X69777381Y-63661819D02*
X70015476Y-63661819D01*
X70015476Y-63661819D02*
X70158333Y-63709438D01*
X70920238Y-64138009D02*
X71063095Y-64185628D01*
X71063095Y-64185628D02*
X71110714Y-64233247D01*
X71110714Y-64233247D02*
X71158333Y-64328485D01*
X71158333Y-64328485D02*
X71158333Y-64471342D01*
X71158333Y-64471342D02*
X71110714Y-64566580D01*
X71110714Y-64566580D02*
X71063095Y-64614200D01*
X71063095Y-64614200D02*
X70967857Y-64661819D01*
X70967857Y-64661819D02*
X70586905Y-64661819D01*
X70586905Y-64661819D02*
X70586905Y-63661819D01*
X70586905Y-63661819D02*
X70920238Y-63661819D01*
X70920238Y-63661819D02*
X71015476Y-63709438D01*
X71015476Y-63709438D02*
X71063095Y-63757057D01*
X71063095Y-63757057D02*
X71110714Y-63852295D01*
X71110714Y-63852295D02*
X71110714Y-63947533D01*
X71110714Y-63947533D02*
X71063095Y-64042771D01*
X71063095Y-64042771D02*
X71015476Y-64090390D01*
X71015476Y-64090390D02*
X70920238Y-64138009D01*
X70920238Y-64138009D02*
X70586905Y-64138009D01*
X72110714Y-64661819D02*
X71539286Y-64661819D01*
X71825000Y-64661819D02*
X71825000Y-63661819D01*
X71825000Y-63661819D02*
X71729762Y-63804676D01*
X71729762Y-63804676D02*
X71634524Y-63899914D01*
X71634524Y-63899914D02*
X71539286Y-63947533D01*
X104753819Y-93702094D02*
X103753819Y-93702094D01*
X103753819Y-93702094D02*
X103753819Y-93463999D01*
X103753819Y-93463999D02*
X103801438Y-93321142D01*
X103801438Y-93321142D02*
X103896676Y-93225904D01*
X103896676Y-93225904D02*
X103991914Y-93178285D01*
X103991914Y-93178285D02*
X104182390Y-93130666D01*
X104182390Y-93130666D02*
X104325247Y-93130666D01*
X104325247Y-93130666D02*
X104515723Y-93178285D01*
X104515723Y-93178285D02*
X104610961Y-93225904D01*
X104610961Y-93225904D02*
X104706200Y-93321142D01*
X104706200Y-93321142D02*
X104753819Y-93463999D01*
X104753819Y-93463999D02*
X104753819Y-93702094D01*
X103753819Y-92797332D02*
X103753819Y-92178285D01*
X103753819Y-92178285D02*
X104134771Y-92511618D01*
X104134771Y-92511618D02*
X104134771Y-92368761D01*
X104134771Y-92368761D02*
X104182390Y-92273523D01*
X104182390Y-92273523D02*
X104230009Y-92225904D01*
X104230009Y-92225904D02*
X104325247Y-92178285D01*
X104325247Y-92178285D02*
X104563342Y-92178285D01*
X104563342Y-92178285D02*
X104658580Y-92225904D01*
X104658580Y-92225904D02*
X104706200Y-92273523D01*
X104706200Y-92273523D02*
X104753819Y-92368761D01*
X104753819Y-92368761D02*
X104753819Y-92654475D01*
X104753819Y-92654475D02*
X104706200Y-92749713D01*
X104706200Y-92749713D02*
X104658580Y-92797332D01*
X67754667Y-101245200D02*
X67897524Y-101292819D01*
X67897524Y-101292819D02*
X68135619Y-101292819D01*
X68135619Y-101292819D02*
X68230857Y-101245200D01*
X68230857Y-101245200D02*
X68278476Y-101197580D01*
X68278476Y-101197580D02*
X68326095Y-101102342D01*
X68326095Y-101102342D02*
X68326095Y-101007104D01*
X68326095Y-101007104D02*
X68278476Y-100911866D01*
X68278476Y-100911866D02*
X68230857Y-100864247D01*
X68230857Y-100864247D02*
X68135619Y-100816628D01*
X68135619Y-100816628D02*
X67945143Y-100769009D01*
X67945143Y-100769009D02*
X67849905Y-100721390D01*
X67849905Y-100721390D02*
X67802286Y-100673771D01*
X67802286Y-100673771D02*
X67754667Y-100578533D01*
X67754667Y-100578533D02*
X67754667Y-100483295D01*
X67754667Y-100483295D02*
X67802286Y-100388057D01*
X67802286Y-100388057D02*
X67849905Y-100340438D01*
X67849905Y-100340438D02*
X67945143Y-100292819D01*
X67945143Y-100292819D02*
X68183238Y-100292819D01*
X68183238Y-100292819D02*
X68326095Y-100340438D01*
X68659429Y-100292819D02*
X68897524Y-101292819D01*
X68897524Y-101292819D02*
X69088000Y-100578533D01*
X69088000Y-100578533D02*
X69278476Y-101292819D01*
X69278476Y-101292819D02*
X69516572Y-100292819D01*
X70421333Y-101292819D02*
X69849905Y-101292819D01*
X70135619Y-101292819D02*
X70135619Y-100292819D01*
X70135619Y-100292819D02*
X70040381Y-100435676D01*
X70040381Y-100435676D02*
X69945143Y-100530914D01*
X69945143Y-100530914D02*
X69849905Y-100578533D01*
X86846580Y-91193916D02*
X86894200Y-91241535D01*
X86894200Y-91241535D02*
X86941819Y-91384392D01*
X86941819Y-91384392D02*
X86941819Y-91479630D01*
X86941819Y-91479630D02*
X86894200Y-91622487D01*
X86894200Y-91622487D02*
X86798961Y-91717725D01*
X86798961Y-91717725D02*
X86703723Y-91765344D01*
X86703723Y-91765344D02*
X86513247Y-91812963D01*
X86513247Y-91812963D02*
X86370390Y-91812963D01*
X86370390Y-91812963D02*
X86179914Y-91765344D01*
X86179914Y-91765344D02*
X86084676Y-91717725D01*
X86084676Y-91717725D02*
X85989438Y-91622487D01*
X85989438Y-91622487D02*
X85941819Y-91479630D01*
X85941819Y-91479630D02*
X85941819Y-91384392D01*
X85941819Y-91384392D02*
X85989438Y-91241535D01*
X85989438Y-91241535D02*
X86037057Y-91193916D01*
X85941819Y-90860582D02*
X85941819Y-90241535D01*
X85941819Y-90241535D02*
X86322771Y-90574868D01*
X86322771Y-90574868D02*
X86322771Y-90432011D01*
X86322771Y-90432011D02*
X86370390Y-90336773D01*
X86370390Y-90336773D02*
X86418009Y-90289154D01*
X86418009Y-90289154D02*
X86513247Y-90241535D01*
X86513247Y-90241535D02*
X86751342Y-90241535D01*
X86751342Y-90241535D02*
X86846580Y-90289154D01*
X86846580Y-90289154D02*
X86894200Y-90336773D01*
X86894200Y-90336773D02*
X86941819Y-90432011D01*
X86941819Y-90432011D02*
X86941819Y-90717725D01*
X86941819Y-90717725D02*
X86894200Y-90812963D01*
X86894200Y-90812963D02*
X86846580Y-90860582D01*
X124438819Y-73381094D02*
X123438819Y-73381094D01*
X123438819Y-73381094D02*
X123438819Y-73142999D01*
X123438819Y-73142999D02*
X123486438Y-73000142D01*
X123486438Y-73000142D02*
X123581676Y-72904904D01*
X123581676Y-72904904D02*
X123676914Y-72857285D01*
X123676914Y-72857285D02*
X123867390Y-72809666D01*
X123867390Y-72809666D02*
X124010247Y-72809666D01*
X124010247Y-72809666D02*
X124200723Y-72857285D01*
X124200723Y-72857285D02*
X124295961Y-72904904D01*
X124295961Y-72904904D02*
X124391200Y-73000142D01*
X124391200Y-73000142D02*
X124438819Y-73142999D01*
X124438819Y-73142999D02*
X124438819Y-73381094D01*
X123534057Y-72428713D02*
X123486438Y-72381094D01*
X123486438Y-72381094D02*
X123438819Y-72285856D01*
X123438819Y-72285856D02*
X123438819Y-72047761D01*
X123438819Y-72047761D02*
X123486438Y-71952523D01*
X123486438Y-71952523D02*
X123534057Y-71904904D01*
X123534057Y-71904904D02*
X123629295Y-71857285D01*
X123629295Y-71857285D02*
X123724533Y-71857285D01*
X123724533Y-71857285D02*
X123867390Y-71904904D01*
X123867390Y-71904904D02*
X124438819Y-72476332D01*
X124438819Y-72476332D02*
X124438819Y-71857285D01*
X76851845Y-75444319D02*
X76851845Y-76253842D01*
X76851845Y-76253842D02*
X76899464Y-76349080D01*
X76899464Y-76349080D02*
X76947083Y-76396700D01*
X76947083Y-76396700D02*
X77042321Y-76444319D01*
X77042321Y-76444319D02*
X77232797Y-76444319D01*
X77232797Y-76444319D02*
X77328035Y-76396700D01*
X77328035Y-76396700D02*
X77375654Y-76349080D01*
X77375654Y-76349080D02*
X77423273Y-76253842D01*
X77423273Y-76253842D02*
X77423273Y-75444319D01*
X78423273Y-76444319D02*
X77851845Y-76444319D01*
X78137559Y-76444319D02*
X78137559Y-75444319D01*
X78137559Y-75444319D02*
X78042321Y-75587176D01*
X78042321Y-75587176D02*
X77947083Y-75682414D01*
X77947083Y-75682414D02*
X77851845Y-75730033D01*
X78375009Y-70180333D02*
X78375009Y-70513666D01*
X78898819Y-70513666D02*
X77898819Y-70513666D01*
X77898819Y-70513666D02*
X77898819Y-70037476D01*
X78898819Y-69132714D02*
X78898819Y-69704142D01*
X78898819Y-69418428D02*
X77898819Y-69418428D01*
X77898819Y-69418428D02*
X78041676Y-69513666D01*
X78041676Y-69513666D02*
X78136914Y-69608904D01*
X78136914Y-69608904D02*
X78184533Y-69704142D01*
X82147580Y-90685916D02*
X82195200Y-90733535D01*
X82195200Y-90733535D02*
X82242819Y-90876392D01*
X82242819Y-90876392D02*
X82242819Y-90971630D01*
X82242819Y-90971630D02*
X82195200Y-91114487D01*
X82195200Y-91114487D02*
X82099961Y-91209725D01*
X82099961Y-91209725D02*
X82004723Y-91257344D01*
X82004723Y-91257344D02*
X81814247Y-91304963D01*
X81814247Y-91304963D02*
X81671390Y-91304963D01*
X81671390Y-91304963D02*
X81480914Y-91257344D01*
X81480914Y-91257344D02*
X81385676Y-91209725D01*
X81385676Y-91209725D02*
X81290438Y-91114487D01*
X81290438Y-91114487D02*
X81242819Y-90971630D01*
X81242819Y-90971630D02*
X81242819Y-90876392D01*
X81242819Y-90876392D02*
X81290438Y-90733535D01*
X81290438Y-90733535D02*
X81338057Y-90685916D01*
X81242819Y-89828773D02*
X81242819Y-90019249D01*
X81242819Y-90019249D02*
X81290438Y-90114487D01*
X81290438Y-90114487D02*
X81338057Y-90162106D01*
X81338057Y-90162106D02*
X81480914Y-90257344D01*
X81480914Y-90257344D02*
X81671390Y-90304963D01*
X81671390Y-90304963D02*
X82052342Y-90304963D01*
X82052342Y-90304963D02*
X82147580Y-90257344D01*
X82147580Y-90257344D02*
X82195200Y-90209725D01*
X82195200Y-90209725D02*
X82242819Y-90114487D01*
X82242819Y-90114487D02*
X82242819Y-89924011D01*
X82242819Y-89924011D02*
X82195200Y-89828773D01*
X82195200Y-89828773D02*
X82147580Y-89781154D01*
X82147580Y-89781154D02*
X82052342Y-89733535D01*
X82052342Y-89733535D02*
X81814247Y-89733535D01*
X81814247Y-89733535D02*
X81719009Y-89781154D01*
X81719009Y-89781154D02*
X81671390Y-89828773D01*
X81671390Y-89828773D02*
X81623771Y-89924011D01*
X81623771Y-89924011D02*
X81623771Y-90114487D01*
X81623771Y-90114487D02*
X81671390Y-90209725D01*
X81671390Y-90209725D02*
X81719009Y-90257344D01*
X81719009Y-90257344D02*
X81814247Y-90304963D01*
X77067580Y-96654916D02*
X77115200Y-96702535D01*
X77115200Y-96702535D02*
X77162819Y-96845392D01*
X77162819Y-96845392D02*
X77162819Y-96940630D01*
X77162819Y-96940630D02*
X77115200Y-97083487D01*
X77115200Y-97083487D02*
X77019961Y-97178725D01*
X77019961Y-97178725D02*
X76924723Y-97226344D01*
X76924723Y-97226344D02*
X76734247Y-97273963D01*
X76734247Y-97273963D02*
X76591390Y-97273963D01*
X76591390Y-97273963D02*
X76400914Y-97226344D01*
X76400914Y-97226344D02*
X76305676Y-97178725D01*
X76305676Y-97178725D02*
X76210438Y-97083487D01*
X76210438Y-97083487D02*
X76162819Y-96940630D01*
X76162819Y-96940630D02*
X76162819Y-96845392D01*
X76162819Y-96845392D02*
X76210438Y-96702535D01*
X76210438Y-96702535D02*
X76258057Y-96654916D01*
X76162819Y-96321582D02*
X76162819Y-95654916D01*
X76162819Y-95654916D02*
X77162819Y-96083487D01*
X69796819Y-88765666D02*
X69320628Y-89098999D01*
X69796819Y-89337094D02*
X68796819Y-89337094D01*
X68796819Y-89337094D02*
X68796819Y-88956142D01*
X68796819Y-88956142D02*
X68844438Y-88860904D01*
X68844438Y-88860904D02*
X68892057Y-88813285D01*
X68892057Y-88813285D02*
X68987295Y-88765666D01*
X68987295Y-88765666D02*
X69130152Y-88765666D01*
X69130152Y-88765666D02*
X69225390Y-88813285D01*
X69225390Y-88813285D02*
X69273009Y-88860904D01*
X69273009Y-88860904D02*
X69320628Y-88956142D01*
X69320628Y-88956142D02*
X69320628Y-89337094D01*
X69130152Y-87908523D02*
X69796819Y-87908523D01*
X68749200Y-88146618D02*
X69463485Y-88384713D01*
X69463485Y-88384713D02*
X69463485Y-87765666D01*
D11*
%TO.C,D1*%
X105299000Y-75257000D02*
X105299000Y-71247000D01*
X105299000Y-75257000D02*
X107299000Y-75257000D01*
X107299000Y-75257000D02*
X107299000Y-71247000D01*
%TO.C,C4*%
X81983252Y-74671250D02*
X81460748Y-74671250D01*
X81983252Y-76141250D02*
X81460748Y-76141250D01*
%TO.C,R1*%
X84863000Y-80521436D02*
X84863000Y-80975564D01*
X86333000Y-80521436D02*
X86333000Y-80975564D01*
%TO.C,C2*%
X73586748Y-74798250D02*
X74109252Y-74798250D01*
X73586748Y-76268250D02*
X74109252Y-76268250D01*
%TO.C,R2*%
X71496250Y-70297936D02*
X71496250Y-70752064D01*
X72966250Y-70297936D02*
X72966250Y-70752064D01*
%TO.C,C5*%
X72067748Y-91435250D02*
X72590252Y-91435250D01*
X72067748Y-92905250D02*
X72590252Y-92905250D01*
%TO.C,D4*%
X124984000Y-95470000D02*
X124984000Y-91460000D01*
X124984000Y-95470000D02*
X126984000Y-95470000D01*
X126984000Y-95470000D02*
X126984000Y-91460000D01*
%TO.C,R3*%
X68607000Y-70306186D02*
X68607000Y-70760314D01*
X70077000Y-70306186D02*
X70077000Y-70760314D01*
%TO.C,C1*%
X67464000Y-83475502D02*
X67464000Y-82952998D01*
X68934000Y-83475502D02*
X68934000Y-82952998D01*
%TO.C,Y1*%
X81164000Y-91817250D02*
X77164000Y-91817250D01*
X81164000Y-95117250D02*
X81164000Y-91817250D01*
D10*
%TO.C,USB1*%
X66475000Y-62175000D02*
X66475000Y-67625000D01*
X74175000Y-62175000D02*
X74175000Y-67625000D01*
X74175000Y-67625000D02*
X66475000Y-67625000D01*
D11*
%TO.C,D3*%
X105299000Y-95324000D02*
X105299000Y-91314000D01*
X105299000Y-95324000D02*
X107299000Y-95324000D01*
X107299000Y-95324000D02*
X107299000Y-91314000D01*
D10*
%TO.C,SW1*%
X66381250Y-94768750D02*
X71581250Y-94768750D01*
X66381250Y-99968750D02*
X66381250Y-94768750D01*
X71581250Y-94768750D02*
X71581250Y-99968750D01*
X71581250Y-99968750D02*
X66381250Y-99968750D01*
X69981250Y-97368750D02*
G75*
G02*
X67981250Y-97368750I-1000000J0D01*
G01*
X67981250Y-97368750D02*
G75*
G02*
X69981250Y-97368750I1000000J0D01*
G01*
D11*
%TO.C,C3*%
X84990000Y-87910998D02*
X84990000Y-88433502D01*
X86460000Y-87910998D02*
X86460000Y-88433502D01*
%TO.C,D2*%
X124984000Y-75003000D02*
X124984000Y-70993000D01*
X124984000Y-75003000D02*
X126984000Y-75003000D01*
X126984000Y-75003000D02*
X126984000Y-70993000D01*
D10*
%TO.C,U1*%
X72438750Y-78264500D02*
X72438750Y-78879500D01*
X72438750Y-78264500D02*
X73113750Y-78264500D01*
X72438750Y-88614500D02*
X72438750Y-87939500D01*
X72438750Y-88614500D02*
X73113750Y-88614500D01*
X82788750Y-78264500D02*
X82113750Y-78264500D01*
X82788750Y-78264500D02*
X82788750Y-78939500D01*
X82788750Y-88614500D02*
X82113750Y-88614500D01*
X82788750Y-88614500D02*
X82788750Y-87939500D01*
D11*
X71753750Y-78899500D02*
X71413750Y-78429500D01*
X72093750Y-78429500D01*
X71753750Y-78899500D01*
G36*
X71753750Y-78899500D02*
G01*
X71413750Y-78429500D01*
X72093750Y-78429500D01*
X71753750Y-78899500D01*
G37*
%TO.C,F1*%
X79354000Y-70449064D02*
X79354000Y-69244936D01*
X81174000Y-70449064D02*
X81174000Y-69244936D01*
%TO.C,C6*%
X81815000Y-93767502D02*
X81815000Y-93244998D01*
X83285000Y-93767502D02*
X83285000Y-93244998D01*
%TO.C,C7*%
X74957000Y-93183998D02*
X74957000Y-93706502D01*
X76427000Y-93183998D02*
X76427000Y-93706502D01*
%TO.C,R4*%
X67972000Y-91189436D02*
X67972000Y-91643564D01*
X69442000Y-91189436D02*
X69442000Y-91643564D01*
%TD*%
M02*
