%TF.GenerationSoftware,KiCad,Pcbnew,9.0.0*%
%TF.CreationDate,2026-08-14T17:38:38-03:00*%
%TF.ProjectId,PCB_Keyboard,5043425f-4b65-4796-926f-6172642e6b69,rev?*%
%TF.SameCoordinates,Original*%
%TF.FileFunction,Copper,L2,Bot*%
%TF.FilePolarity,Positive*%
%FSLAX46Y46*%
G04 Gerber Fmt 4.6, Leading zero omitted, Abs format (unit mm)*
G04 Created by KiCad (PCBNEW 9.0.0) date 2026-08-14 17:38:38*
%MOMM*%
%LPD*%
G01*
G04 APERTURE LIST*
G04 Aperture macros list*
%AMHorizOval*
0 Thick line with rounded ends*
0 $1 width*
0 $2 $3 position (X,Y) of the first rounded end (center of the circle)*
0 $4 $5 position (X,Y) of the second rounded end (center of the circle)*
0 Add line between two ends*
20,1,$1,$2,$3,$4,$5,0*
0 Add two circle primitives to create the rounded ends*
1,1,$1,$2,$3*
1,1,$1,$4,$5*%
G04 Aperture macros list end*
%TA.AperFunction,ComponentPad*%
%ADD10O,1.700000X2.700000*%
%TD*%
%TA.AperFunction,ComponentPad*%
%ADD11HorizOval,2.300000X0.655008X0.729993X-0.655008X-0.729993X0*%
%TD*%
%TA.AperFunction,ComponentPad*%
%ADD12C,2.300000*%
%TD*%
%TA.AperFunction,ComponentPad*%
%ADD13HorizOval,2.300000X0.020004X0.290000X-0.020004X-0.290000X0*%
%TD*%
%TA.AperFunction,ViaPad*%
%ADD14C,0.600000*%
%TD*%
%TA.AperFunction,Conductor*%
%ADD15C,0.200000*%
%TD*%
G04 APERTURE END LIST*
D10*
%TO.P,USB1,6,SHIELD*%
%TO.N,unconnected-(USB1-SHIELD-Pad6)*%
X73975000Y-62175000D03*
X66675000Y-62175000D03*
X73975000Y-66675000D03*
X66675000Y-66675000D03*
%TD*%
D11*
%TO.P,MX4,1,COL*%
%TO.N,col1*%
X114701008Y-87535007D03*
D12*
X115356000Y-86805000D03*
D13*
%TO.P,MX4,2,ROW*%
%TO.N,Net-(D4-A)*%
X120376004Y-86015000D03*
D12*
X120396000Y-85725000D03*
%TD*%
D11*
%TO.P,MX3,1,COL*%
%TO.N,col0*%
X95016008Y-87535007D03*
D12*
X95671000Y-86805000D03*
D13*
%TO.P,MX3,2,ROW*%
%TO.N,Net-(D3-A)*%
X100691004Y-86015000D03*
D12*
X100711000Y-85725000D03*
%TD*%
D11*
%TO.P,MX1,1,COL*%
%TO.N,col0*%
X95016008Y-67723007D03*
D12*
X95671000Y-66993000D03*
D13*
%TO.P,MX1,2,ROW*%
%TO.N,Net-(D1-A)*%
X100691004Y-66203000D03*
D12*
X100711000Y-65913000D03*
%TD*%
D11*
%TO.P,MX2,1,COL*%
%TO.N,col1*%
X114669258Y-67691257D03*
D12*
X115324250Y-66961250D03*
D13*
%TO.P,MX2,2,ROW*%
%TO.N,Net-(D2-A)*%
X120344254Y-66171250D03*
D12*
X120364250Y-65881250D03*
%TD*%
D14*
%TO.N,GND*%
X83947000Y-91059000D03*
X85852000Y-75946000D03*
X73787000Y-93980000D03*
X77851000Y-91313000D03*
X78994000Y-72771000D03*
X86360000Y-82931000D03*
%TO.N,row0*%
X123698000Y-74549000D03*
X110490000Y-74549000D03*
%TO.N,col0*%
X93599000Y-76200000D03*
X95885000Y-83693000D03*
%TD*%
D15*
%TO.N,GND*%
X76454000Y-91313000D02*
X77851000Y-91313000D01*
X83947000Y-91059000D02*
X85471000Y-89535000D01*
X82169000Y-75946000D02*
X78994000Y-72771000D01*
X85471000Y-83820000D02*
X86360000Y-82931000D01*
X85852000Y-75946000D02*
X82169000Y-75946000D01*
X73787000Y-93980000D02*
X76454000Y-91313000D01*
X85471000Y-89535000D02*
X85471000Y-83820000D01*
%TO.N,row0*%
X110490000Y-74549000D02*
X123698000Y-74549000D01*
%TO.N,col0*%
X93599000Y-81407000D02*
X95885000Y-83693000D01*
X93599000Y-76200000D02*
X93599000Y-81407000D01*
%TD*%
M02*
