%TF.GenerationSoftware,KiCad,Pcbnew,9.0.0*%
%TF.CreationDate,2026-08-14T17:38:38-03:00*%
%TF.ProjectId,PCB_Keyboard,5043425f-4b65-4796-926f-6172642e6b69,rev?*%
%TF.SameCoordinates,Original*%
%TF.FileFunction,Copper,L1,Top*%
%TF.FilePolarity,Positive*%
%FSLAX46Y46*%
G04 Gerber Fmt 4.6, Leading zero omitted, Abs format (unit mm)*
G04 Created by KiCad (PCBNEW 9.0.0) date 2026-08-14 17:38:38*
%MOMM*%
%LPD*%
G01*
G04 APERTURE LIST*
G04 Aperture macros list*
%AMRoundRect*
0 Rectangle with rounded corners*
0 $1 Rounding radius*
0 $2 $3 $4 $5 $6 $7 $8 $9 X,Y pos of 4 corners*
0 Add a 4 corners polygon primitive as box body*
4,1,4,$2,$3,$4,$5,$6,$7,$8,$9,$2,$3,0*
0 Add four circle primitives for the rounded corners*
1,1,$1+$1,$2,$3*
1,1,$1+$1,$4,$5*
1,1,$1+$1,$6,$7*
1,1,$1+$1,$8,$9*
0 Add four rect primitives between the rounded corners*
20,1,$1+$1,$2,$3,$4,$5,0*
20,1,$1+$1,$4,$5,$6,$7,0*
20,1,$1+$1,$6,$7,$8,$9,0*
20,1,$1+$1,$8,$9,$2,$3,0*%
%AMHorizOval*
0 Thick line with rounded ends*
0 $1 width*
0 $2 $3 position (X,Y) of the first rounded end (center of the circle)*
0 $4 $5 position (X,Y) of the second rounded end (center of the circle)*
0 Add line between two ends*
20,1,$1,$2,$3,$4,$5,0*
0 Add two circle primitives to create the rounded ends*
1,1,$1,$2,$3*
1,1,$1,$4,$5*%
G04 Aperture macros list end*
%TA.AperFunction,SMDPad,CuDef*%
%ADD10RoundRect,0.225000X0.375000X-0.225000X0.375000X0.225000X-0.375000X0.225000X-0.375000X-0.225000X0*%
%TD*%
%TA.AperFunction,SMDPad,CuDef*%
%ADD11RoundRect,0.250000X0.250000X0.475000X-0.250000X0.475000X-0.250000X-0.475000X0.250000X-0.475000X0*%
%TD*%
%TA.AperFunction,SMDPad,CuDef*%
%ADD12RoundRect,0.250000X-0.450000X0.262500X-0.450000X-0.262500X0.450000X-0.262500X0.450000X0.262500X0*%
%TD*%
%TA.AperFunction,SMDPad,CuDef*%
%ADD13RoundRect,0.250000X-0.250000X-0.475000X0.250000X-0.475000X0.250000X0.475000X-0.250000X0.475000X0*%
%TD*%
%TA.AperFunction,SMDPad,CuDef*%
%ADD14RoundRect,0.250000X0.475000X-0.250000X0.475000X0.250000X-0.475000X0.250000X-0.475000X-0.250000X0*%
%TD*%
%TA.AperFunction,SMDPad,CuDef*%
%ADD15R,1.400000X1.200000*%
%TD*%
%TA.AperFunction,SMDPad,CuDef*%
%ADD16R,0.500000X2.250000*%
%TD*%
%TA.AperFunction,ComponentPad*%
%ADD17O,1.700000X2.700000*%
%TD*%
%TA.AperFunction,ComponentPad*%
%ADD18HorizOval,2.300000X0.655008X0.729993X-0.655008X-0.729993X0*%
%TD*%
%TA.AperFunction,ComponentPad*%
%ADD19C,2.300000*%
%TD*%
%TA.AperFunction,ComponentPad*%
%ADD20HorizOval,2.300000X0.020004X0.290000X-0.020004X-0.290000X0*%
%TD*%
%TA.AperFunction,SMDPad,CuDef*%
%ADD21R,1.800000X1.100000*%
%TD*%
%TA.AperFunction,SMDPad,CuDef*%
%ADD22RoundRect,0.250000X-0.475000X0.250000X-0.475000X-0.250000X0.475000X-0.250000X0.475000X0.250000X0*%
%TD*%
%TA.AperFunction,SMDPad,CuDef*%
%ADD23R,1.500000X0.550000*%
%TD*%
%TA.AperFunction,SMDPad,CuDef*%
%ADD24R,0.550000X1.500000*%
%TD*%
%TA.AperFunction,SMDPad,CuDef*%
%ADD25RoundRect,0.250000X0.625000X-0.375000X0.625000X0.375000X-0.625000X0.375000X-0.625000X-0.375000X0*%
%TD*%
%TA.AperFunction,ViaPad*%
%ADD26C,0.600000*%
%TD*%
%TA.AperFunction,Conductor*%
%ADD27C,0.200000*%
%TD*%
G04 APERTURE END LIST*
D10*
%TO.P,D1,1,K*%
%TO.N,row0*%
X106299000Y-74547000D03*
%TO.P,D1,2,A*%
%TO.N,Net-(D1-A)*%
X106299000Y-71247000D03*
%TD*%
D11*
%TO.P,C4,1*%
%TO.N,+5V*%
X82672000Y-75406250D03*
%TO.P,C4,2*%
%TO.N,GND*%
X80772000Y-75406250D03*
%TD*%
D12*
%TO.P,R1,1*%
%TO.N,Net-(U1-~{HWB}{slash}PE2)*%
X85598000Y-79836000D03*
%TO.P,R1,2*%
%TO.N,GND*%
X85598000Y-81661000D03*
%TD*%
D13*
%TO.P,C2,1*%
%TO.N,+5V*%
X72898000Y-75533250D03*
%TO.P,C2,2*%
%TO.N,GND*%
X74798000Y-75533250D03*
%TD*%
D12*
%TO.P,R2,1*%
%TO.N,D-*%
X72231250Y-69612500D03*
%TO.P,R2,2*%
%TO.N,Net-(U1-D-)*%
X72231250Y-71437500D03*
%TD*%
D13*
%TO.P,C5,1*%
%TO.N,+5V*%
X71379000Y-92170250D03*
%TO.P,C5,2*%
%TO.N,GND*%
X73279000Y-92170250D03*
%TD*%
D10*
%TO.P,D4,1,K*%
%TO.N,row1*%
X125984000Y-94760000D03*
%TO.P,D4,2,A*%
%TO.N,Net-(D4-A)*%
X125984000Y-91460000D03*
%TD*%
D12*
%TO.P,R3,1*%
%TO.N,D+*%
X69342000Y-69620750D03*
%TO.P,R3,2*%
%TO.N,Net-(U1-D+)*%
X69342000Y-71445750D03*
%TD*%
D14*
%TO.P,C1,1*%
%TO.N,Net-(U1-UCAP)*%
X68199000Y-84164250D03*
%TO.P,C1,2*%
%TO.N,GND*%
X68199000Y-82264250D03*
%TD*%
D15*
%TO.P,Y1,1,1*%
%TO.N,Net-(U1-XTAL1)*%
X80264000Y-92617250D03*
%TO.P,Y1,2,2*%
%TO.N,GND*%
X78064000Y-92617250D03*
%TO.P,Y1,3,3*%
%TO.N,Net-(U1-XTAL2)*%
X78064000Y-94317250D03*
%TO.P,Y1,4,4*%
%TO.N,GND*%
X80264000Y-94317250D03*
%TD*%
D16*
%TO.P,USB1,1,GND*%
%TO.N,GND*%
X68725000Y-66675000D03*
%TO.P,USB1,2,ID*%
%TO.N,unconnected-(USB1-ID-Pad2)*%
X69525000Y-66675000D03*
%TO.P,USB1,3,D+*%
%TO.N,D+*%
X70325000Y-66675000D03*
%TO.P,USB1,4,D-*%
%TO.N,D-*%
X71125000Y-66675000D03*
%TO.P,USB1,5,VBUS*%
%TO.N,VCC*%
X71925000Y-66675000D03*
D17*
%TO.P,USB1,6,SHIELD*%
%TO.N,unconnected-(USB1-SHIELD-Pad6)*%
X73975000Y-62175000D03*
X66675000Y-62175000D03*
X73975000Y-66675000D03*
X66675000Y-66675000D03*
%TD*%
D18*
%TO.P,MX4,1,COL*%
%TO.N,col1*%
X114701008Y-87535007D03*
D19*
X115356000Y-86805000D03*
D20*
%TO.P,MX4,2,ROW*%
%TO.N,Net-(D4-A)*%
X120376004Y-86015000D03*
D19*
X120396000Y-85725000D03*
%TD*%
D18*
%TO.P,MX3,1,COL*%
%TO.N,col0*%
X95016008Y-87535007D03*
D19*
X95671000Y-86805000D03*
D20*
%TO.P,MX3,2,ROW*%
%TO.N,Net-(D3-A)*%
X100691004Y-86015000D03*
D19*
X100711000Y-85725000D03*
%TD*%
D10*
%TO.P,D3,1,K*%
%TO.N,row1*%
X106299000Y-94614000D03*
%TO.P,D3,2,A*%
%TO.N,Net-(D3-A)*%
X106299000Y-91314000D03*
%TD*%
D18*
%TO.P,MX1,1,COL*%
%TO.N,col0*%
X95016008Y-67723007D03*
D19*
X95671000Y-66993000D03*
D20*
%TO.P,MX1,2,ROW*%
%TO.N,Net-(D1-A)*%
X100691004Y-66203000D03*
D19*
X100711000Y-65913000D03*
%TD*%
D21*
%TO.P,SW1,1,1*%
%TO.N,GND*%
X72081250Y-99218750D03*
%TO.P,SW1,2,2*%
%TO.N,Net-(U1-~{RESET})*%
X65881250Y-95518750D03*
%TO.P,SW1,3*%
%TO.N,N/C*%
X72081250Y-95518750D03*
%TO.P,SW1,4*%
X65881250Y-99218750D03*
%TD*%
D22*
%TO.P,C3,1*%
%TO.N,+5V*%
X85725000Y-87222250D03*
%TO.P,C3,2*%
%TO.N,GND*%
X85725000Y-89122250D03*
%TD*%
D10*
%TO.P,D2,1,K*%
%TO.N,row0*%
X125984000Y-74293000D03*
%TO.P,D2,2,A*%
%TO.N,Net-(D2-A)*%
X125984000Y-70993000D03*
%TD*%
D23*
%TO.P,U1,1,PE6*%
%TO.N,unconnected-(U1-PE6-Pad1)*%
X71913750Y-79439500D03*
%TO.P,U1,2,UVCC*%
%TO.N,+5V*%
X71913750Y-80239500D03*
%TO.P,U1,3,D-*%
%TO.N,Net-(U1-D-)*%
X71913750Y-81039500D03*
%TO.P,U1,4,D+*%
%TO.N,Net-(U1-D+)*%
X71913750Y-81839500D03*
%TO.P,U1,5,UGND*%
%TO.N,GND*%
X71913750Y-82639500D03*
%TO.P,U1,6,UCAP*%
%TO.N,Net-(U1-UCAP)*%
X71913750Y-83439500D03*
%TO.P,U1,7,VBUS*%
%TO.N,+5V*%
X71913750Y-84239500D03*
%TO.P,U1,8,PB0*%
%TO.N,unconnected-(U1-PB0-Pad8)*%
X71913750Y-85039500D03*
%TO.P,U1,9,PB1*%
%TO.N,unconnected-(U1-PB1-Pad9)*%
X71913750Y-85839500D03*
%TO.P,U1,10,PB2*%
%TO.N,unconnected-(U1-PB2-Pad10)*%
X71913750Y-86639500D03*
%TO.P,U1,11,PB3*%
%TO.N,unconnected-(U1-PB3-Pad11)*%
X71913750Y-87439500D03*
D24*
%TO.P,U1,12,PB7*%
%TO.N,unconnected-(U1-PB7-Pad12)*%
X73613750Y-89139500D03*
%TO.P,U1,13,~{RESET}*%
%TO.N,Net-(U1-~{RESET})*%
X74413750Y-89139500D03*
%TO.P,U1,14,VCC*%
%TO.N,+5V*%
X75213750Y-89139500D03*
%TO.P,U1,15,GND*%
%TO.N,GND*%
X76013750Y-89139500D03*
%TO.P,U1,16,XTAL2*%
%TO.N,Net-(U1-XTAL2)*%
X76813750Y-89139500D03*
%TO.P,U1,17,XTAL1*%
%TO.N,Net-(U1-XTAL1)*%
X77613750Y-89139500D03*
%TO.P,U1,18,PD0*%
%TO.N,unconnected-(U1-PD0-Pad18)*%
X78413750Y-89139500D03*
%TO.P,U1,19,PD1*%
%TO.N,unconnected-(U1-PD1-Pad19)*%
X79213750Y-89139500D03*
%TO.P,U1,20,PD2*%
%TO.N,unconnected-(U1-PD2-Pad20)*%
X80013750Y-89139500D03*
%TO.P,U1,21,PD3*%
%TO.N,unconnected-(U1-PD3-Pad21)*%
X80813750Y-89139500D03*
%TO.P,U1,22,PD5*%
%TO.N,unconnected-(U1-PD5-Pad22)*%
X81613750Y-89139500D03*
D23*
%TO.P,U1,23,GND*%
%TO.N,GND*%
X83313750Y-87439500D03*
%TO.P,U1,24,AVCC*%
%TO.N,+5V*%
X83313750Y-86639500D03*
%TO.P,U1,25,PD4*%
%TO.N,unconnected-(U1-PD4-Pad25)*%
X83313750Y-85839500D03*
%TO.P,U1,26,PD6*%
%TO.N,row1*%
X83313750Y-85039500D03*
%TO.P,U1,27,PD7*%
%TO.N,row0*%
X83313750Y-84239500D03*
%TO.P,U1,28,PB4*%
%TO.N,col0*%
X83313750Y-83439500D03*
%TO.P,U1,29,PB5*%
%TO.N,col1*%
X83313750Y-82639500D03*
%TO.P,U1,30,PB6*%
%TO.N,unconnected-(U1-PB6-Pad30)*%
X83313750Y-81839500D03*
%TO.P,U1,31,PC6*%
%TO.N,unconnected-(U1-PC6-Pad31)*%
X83313750Y-81039500D03*
%TO.P,U1,32,PC7*%
%TO.N,unconnected-(U1-PC7-Pad32)*%
X83313750Y-80239500D03*
%TO.P,U1,33,~{HWB}/PE2*%
%TO.N,Net-(U1-~{HWB}{slash}PE2)*%
X83313750Y-79439500D03*
D24*
%TO.P,U1,34,VCC*%
%TO.N,+5V*%
X81613750Y-77739500D03*
%TO.P,U1,35,GND*%
%TO.N,GND*%
X80813750Y-77739500D03*
%TO.P,U1,36,PF7*%
%TO.N,unconnected-(U1-PF7-Pad36)*%
X80013750Y-77739500D03*
%TO.P,U1,37,PF6*%
%TO.N,unconnected-(U1-PF6-Pad37)*%
X79213750Y-77739500D03*
%TO.P,U1,38,PF5*%
%TO.N,unconnected-(U1-PF5-Pad38)*%
X78413750Y-77739500D03*
%TO.P,U1,39,PF4*%
%TO.N,unconnected-(U1-PF4-Pad39)*%
X77613750Y-77739500D03*
%TO.P,U1,40,PF1*%
%TO.N,unconnected-(U1-PF1-Pad40)*%
X76813750Y-77739500D03*
%TO.P,U1,41,PF0*%
%TO.N,unconnected-(U1-PF0-Pad41)*%
X76013750Y-77739500D03*
%TO.P,U1,42,AREF*%
%TO.N,unconnected-(U1-AREF-Pad42)*%
X75213750Y-77739500D03*
%TO.P,U1,43,GND*%
%TO.N,GND*%
X74413750Y-77739500D03*
%TO.P,U1,44,AVCC*%
%TO.N,+5V*%
X73613750Y-77739500D03*
%TD*%
D25*
%TO.P,F1,1*%
%TO.N,+5V*%
X80264000Y-71247000D03*
%TO.P,F1,2*%
%TO.N,VCC*%
X80264000Y-68447000D03*
%TD*%
D14*
%TO.P,C6,1*%
%TO.N,GND*%
X82550000Y-94456250D03*
%TO.P,C6,2*%
%TO.N,Net-(U1-XTAL1)*%
X82550000Y-92556250D03*
%TD*%
D22*
%TO.P,C7,1*%
%TO.N,GND*%
X75692000Y-92495250D03*
%TO.P,C7,2*%
%TO.N,Net-(U1-XTAL2)*%
X75692000Y-94395250D03*
%TD*%
D12*
%TO.P,R4,1*%
%TO.N,Net-(U1-~{RESET})*%
X68707000Y-90504000D03*
%TO.P,R4,2*%
%TO.N,+5V*%
X68707000Y-92329000D03*
%TD*%
D18*
%TO.P,MX2,1,COL*%
%TO.N,col1*%
X114669258Y-67691257D03*
D19*
X115324250Y-66961250D03*
D20*
%TO.P,MX2,2,ROW*%
%TO.N,Net-(D2-A)*%
X120344254Y-66171250D03*
D19*
X120364250Y-65881250D03*
%TD*%
D26*
%TO.N,GND*%
X83947000Y-91059000D03*
X85852000Y-75946000D03*
X73787000Y-93980000D03*
X77851000Y-91313000D03*
X78994000Y-72771000D03*
X86360000Y-82931000D03*
%TO.N,row0*%
X123698000Y-74549000D03*
X110490000Y-74549000D03*
%TO.N,col0*%
X93599000Y-76200000D03*
X95885000Y-83693000D03*
%TD*%
D27*
%TO.N,GND*%
X77851000Y-92404250D02*
X78064000Y-92617250D01*
X80403000Y-94456250D02*
X80264000Y-94317250D01*
X83313750Y-87439500D02*
X84996500Y-89122250D01*
X79839250Y-94317250D02*
X80264000Y-94317250D01*
X78064000Y-92617250D02*
X78362000Y-92617250D01*
X85598000Y-82169000D02*
X86360000Y-82931000D01*
X73755250Y-99218750D02*
X77216000Y-95758000D01*
X76013750Y-89139500D02*
X76013750Y-89789150D01*
X84996500Y-89122250D02*
X85725000Y-89122250D01*
X83313750Y-90425750D02*
X83947000Y-91059000D01*
X80772000Y-77697750D02*
X80813750Y-77739500D01*
X73279000Y-93472000D02*
X73787000Y-93980000D01*
X80772000Y-75406250D02*
X80772000Y-77697750D01*
X77216000Y-95758000D02*
X79375000Y-95758000D01*
X82550000Y-94456250D02*
X80403000Y-94456250D01*
X68725000Y-66675000D02*
X68199000Y-67201000D01*
X78994000Y-74295000D02*
X79121000Y-74422000D01*
X83313750Y-87439500D02*
X83313750Y-90425750D01*
X78362000Y-92617250D02*
X80062000Y-94317250D01*
X72081250Y-99218750D02*
X73755250Y-99218750D01*
X68574250Y-82639500D02*
X68199000Y-82264250D01*
X86599000Y-80660000D02*
X86599000Y-76693000D01*
X77885250Y-92617250D02*
X77763250Y-92495250D01*
X79121000Y-74422000D02*
X79787750Y-74422000D01*
X78064000Y-92617250D02*
X77885250Y-92617250D01*
X73632650Y-92170250D02*
X73279000Y-92170250D01*
X78009750Y-75533250D02*
X79121000Y-74422000D01*
X73279000Y-92170250D02*
X73279000Y-93472000D01*
X80062000Y-94317250D02*
X80264000Y-94317250D01*
X85598000Y-81661000D02*
X86599000Y-80660000D01*
X68199000Y-67201000D02*
X68199000Y-82264250D01*
X80264000Y-94869000D02*
X80264000Y-94317250D01*
X77763250Y-92495250D02*
X75692000Y-92495250D01*
X85598000Y-81661000D02*
X85598000Y-82169000D01*
X79787750Y-74422000D02*
X80772000Y-75406250D01*
X77851000Y-91313000D02*
X77851000Y-92404250D01*
X74798000Y-75533250D02*
X78009750Y-75533250D01*
X74798000Y-75533250D02*
X74413750Y-75917500D01*
X78994000Y-72771000D02*
X78994000Y-74295000D01*
X85725000Y-91281250D02*
X82550000Y-94456250D01*
X74413750Y-75917500D02*
X74413750Y-77739500D01*
X71913750Y-82639500D02*
X68574250Y-82639500D01*
X86599000Y-76693000D02*
X85852000Y-75946000D01*
X79375000Y-95758000D02*
X80264000Y-94869000D01*
X85725000Y-89122250D02*
X85725000Y-91281250D01*
X76013750Y-89789150D02*
X73632650Y-92170250D01*
%TO.N,Net-(U1-UCAP)*%
X68199000Y-84164250D02*
X68923750Y-83439500D01*
X68923750Y-83439500D02*
X71913750Y-83439500D01*
%TO.N,+5V*%
X82672000Y-75406250D02*
X82672000Y-76681250D01*
X71086750Y-80239500D02*
X70358000Y-79510750D01*
X74248250Y-90932000D02*
X72617250Y-90932000D01*
X80264000Y-72998250D02*
X82672000Y-75406250D01*
X71913750Y-80239500D02*
X71086750Y-80239500D01*
X83313750Y-86639500D02*
X85142250Y-86639500D01*
X82672000Y-76681250D02*
X81613750Y-77739500D01*
X72898000Y-77023750D02*
X73613750Y-77739500D01*
X71220250Y-92329000D02*
X71379000Y-92170250D01*
X75213750Y-89139500D02*
X75213750Y-89966500D01*
X70358000Y-78073250D02*
X72898000Y-75533250D01*
X68707000Y-92329000D02*
X71220250Y-92329000D01*
X72898000Y-75533250D02*
X72898000Y-77023750D01*
X70358000Y-79510750D02*
X70358000Y-78073250D01*
X80264000Y-71247000D02*
X80264000Y-72998250D01*
X75213750Y-89966500D02*
X74248250Y-90932000D01*
X72617250Y-90932000D02*
X71379000Y-92170250D01*
X85142250Y-86639500D02*
X85725000Y-87222250D01*
%TO.N,Net-(U1-XTAL1)*%
X80325000Y-92556250D02*
X80264000Y-92617250D01*
X77613750Y-89967000D02*
X77613750Y-89139500D01*
X82550000Y-92556250D02*
X80325000Y-92556250D01*
X80264000Y-92617250D02*
X77613750Y-89967000D01*
%TO.N,Net-(U1-XTAL2)*%
X76813750Y-90089500D02*
X76813750Y-89139500D01*
X75692000Y-94395250D02*
X74295000Y-92998250D01*
X78064000Y-94317250D02*
X75770000Y-94317250D01*
X76712750Y-90673250D02*
X76712750Y-90190500D01*
X74295000Y-92075000D02*
X74930000Y-91440000D01*
X75946000Y-91440000D02*
X76712750Y-90673250D01*
X75770000Y-94317250D02*
X75692000Y-94395250D01*
X76712750Y-90190500D02*
X76813750Y-90089500D01*
X74295000Y-92998250D02*
X74295000Y-92075000D01*
X74930000Y-91440000D02*
X75946000Y-91440000D01*
%TO.N,row0*%
X125730000Y-74547000D02*
X125984000Y-74293000D01*
X123954000Y-74293000D02*
X125984000Y-74293000D01*
X85685900Y-84602000D02*
X88753000Y-84602000D01*
X106299000Y-74547000D02*
X110488000Y-74547000D01*
X88753000Y-84602000D02*
X98808000Y-74547000D01*
X98808000Y-74547000D02*
X106299000Y-74547000D01*
X110488000Y-74547000D02*
X110490000Y-74549000D01*
X123698000Y-74549000D02*
X123954000Y-74293000D01*
X83313750Y-84239500D02*
X85323400Y-84239500D01*
X85323400Y-84239500D02*
X85685900Y-84602000D01*
%TO.N,Net-(D1-A)*%
X100726000Y-66548000D02*
X100671000Y-66493000D01*
X106299000Y-71247000D02*
X106299000Y-69215000D01*
X103632000Y-66548000D02*
X100726000Y-66548000D01*
X106299000Y-69215000D02*
X103632000Y-66548000D01*
%TO.N,Net-(D2-A)*%
X125984000Y-70993000D02*
X125984000Y-68580000D01*
X123285250Y-65881250D02*
X120364250Y-65881250D01*
X125984000Y-68580000D02*
X123285250Y-65881250D01*
%TO.N,row1*%
X125838000Y-94614000D02*
X125984000Y-94760000D01*
X92837000Y-94361000D02*
X104396000Y-94361000D01*
X104649000Y-94614000D02*
X106299000Y-94614000D01*
X84785500Y-85039500D02*
X85090000Y-85344000D01*
X89281000Y-87122000D02*
X89281000Y-90805000D01*
X104396000Y-94361000D02*
X104649000Y-94614000D01*
X106299000Y-94614000D02*
X125838000Y-94614000D01*
X89281000Y-90805000D02*
X92837000Y-94361000D01*
X85090000Y-85344000D02*
X87503000Y-85344000D01*
X87503000Y-85344000D02*
X89281000Y-87122000D01*
X83313750Y-85039500D02*
X84785500Y-85039500D01*
%TO.N,Net-(D3-A)*%
X104339000Y-86305000D02*
X100671000Y-86305000D01*
X106299000Y-88265000D02*
X104339000Y-86305000D01*
X106299000Y-91314000D02*
X106299000Y-88265000D01*
%TO.N,Net-(D4-A)*%
X125984000Y-91460000D02*
X125984000Y-88646000D01*
X125984000Y-88646000D02*
X123698000Y-86360000D01*
X120411000Y-86360000D02*
X120356000Y-86305000D01*
X123698000Y-86360000D02*
X120411000Y-86360000D01*
%TO.N,VCC*%
X71925000Y-66752760D02*
X73619240Y-68447000D01*
X73619240Y-68447000D02*
X80264000Y-68447000D01*
X71925000Y-66675000D02*
X71925000Y-66752760D01*
%TO.N,col0*%
X85852000Y-84201000D02*
X87630000Y-84201000D01*
X95250000Y-69342000D02*
X95250000Y-73152000D01*
X87630000Y-84201000D02*
X91059000Y-80772000D01*
X95250000Y-73152000D02*
X95250000Y-73406000D01*
X95250000Y-73406000D02*
X93726000Y-74930000D01*
X93726000Y-74930000D02*
X93599000Y-75057000D01*
X85090500Y-83439500D02*
X85852000Y-84201000D01*
X91059000Y-69723000D02*
X92329000Y-68453000D01*
X91059000Y-80772000D02*
X91059000Y-69723000D01*
X95885000Y-83693000D02*
X95671000Y-83907000D01*
X95671000Y-83907000D02*
X95671000Y-86805000D01*
X94361000Y-68453000D02*
X95250000Y-69342000D01*
X83313750Y-83439500D02*
X85090500Y-83439500D01*
X93599000Y-75057000D02*
X93599000Y-76200000D01*
X92329000Y-68453000D02*
X94361000Y-68453000D01*
%TO.N,col1*%
X90170000Y-66421000D02*
X92964000Y-63627000D01*
X85077840Y-82639500D02*
X85970340Y-83532000D01*
X87156000Y-83532000D02*
X90170000Y-80518000D01*
X114014250Y-68421250D02*
X114014250Y-85463250D01*
X90170000Y-80518000D02*
X90170000Y-66421000D01*
X109220000Y-63627000D02*
X114014250Y-68421250D01*
X92964000Y-63627000D02*
X109220000Y-63627000D01*
X85970340Y-83532000D02*
X87156000Y-83532000D01*
X114014250Y-85463250D02*
X115356000Y-86805000D01*
X83313750Y-82639500D02*
X85077840Y-82639500D01*
%TO.N,Net-(U1-~{HWB}{slash}PE2)*%
X85598000Y-79836000D02*
X85201500Y-79439500D01*
X85201500Y-79439500D02*
X83313750Y-79439500D01*
%TO.N,D-*%
X71125000Y-68067000D02*
X70993000Y-68199000D01*
X71125000Y-66675000D02*
X71125000Y-68067000D01*
X72231250Y-69437250D02*
X72231250Y-69612500D01*
X70993000Y-68199000D02*
X72231250Y-69437250D01*
%TO.N,Net-(U1-D-)*%
X71260500Y-81039500D02*
X71913750Y-81039500D01*
X71374000Y-75184000D02*
X69723000Y-76835000D01*
X69723000Y-79502000D02*
X71260500Y-81039500D01*
X72231250Y-71437500D02*
X72231250Y-72548750D01*
X69723000Y-76835000D02*
X69723000Y-79502000D01*
X71374000Y-73406000D02*
X71374000Y-75184000D01*
X72231250Y-72548750D02*
X71374000Y-73406000D01*
%TO.N,D+*%
X70485000Y-68199000D02*
X69342000Y-69342000D01*
X70325000Y-66675000D02*
X70325000Y-68039000D01*
X69342000Y-69342000D02*
X69342000Y-69620750D01*
X70325000Y-68039000D02*
X70485000Y-68199000D01*
%TO.N,Net-(U1-D+)*%
X68707000Y-76708000D02*
X68707000Y-79459750D01*
X71086750Y-81839500D02*
X71913750Y-81839500D01*
X70231000Y-73406000D02*
X70231000Y-75184000D01*
X69342000Y-71445750D02*
X69342000Y-72517000D01*
X68707000Y-79459750D02*
X71086750Y-81839500D01*
X69342000Y-72517000D02*
X70231000Y-73406000D01*
X70231000Y-75184000D02*
X68707000Y-76708000D01*
%TO.N,Net-(U1-~{RESET})*%
X74413750Y-89966500D02*
X74413750Y-89139500D01*
X68707000Y-90504000D02*
X73876250Y-90504000D01*
X65881250Y-93329750D02*
X68707000Y-90504000D01*
X73876250Y-90504000D02*
X74413750Y-89966500D01*
X65881250Y-95518750D02*
X65881250Y-93329750D01*
%TD*%
%TA.AperFunction,Conductor*%
%TO.N,GND*%
G36*
X88206149Y-60853305D02*
G01*
X88252457Y-60905624D01*
X88264209Y-60959097D01*
X88134462Y-81653714D01*
X88114357Y-81720629D01*
X88098145Y-81740618D01*
X86943584Y-82895181D01*
X86882261Y-82928666D01*
X86855903Y-82931500D01*
X86270438Y-82931500D01*
X86240998Y-82922855D01*
X86211013Y-82916333D01*
X86205995Y-82912577D01*
X86203399Y-82911815D01*
X86182762Y-82895186D01*
X86154983Y-82867407D01*
X86121500Y-82806089D01*
X86126483Y-82736398D01*
X86168354Y-82680463D01*
X86203662Y-82662023D01*
X86367119Y-82607858D01*
X86367124Y-82607856D01*
X86516345Y-82515815D01*
X86640315Y-82391845D01*
X86732356Y-82242624D01*
X86732358Y-82242619D01*
X86787505Y-82076197D01*
X86787506Y-82076190D01*
X86797999Y-81973486D01*
X86798000Y-81973473D01*
X86798000Y-81911000D01*
X85722000Y-81911000D01*
X85654961Y-81891315D01*
X85609206Y-81838511D01*
X85598000Y-81787000D01*
X85598000Y-81535000D01*
X85617685Y-81467961D01*
X85670489Y-81422206D01*
X85722000Y-81411000D01*
X86797999Y-81411000D01*
X86797999Y-81348528D01*
X86797998Y-81348513D01*
X86787505Y-81245802D01*
X86732358Y-81079380D01*
X86732356Y-81079375D01*
X86640315Y-80930154D01*
X86546695Y-80836534D01*
X86513210Y-80775211D01*
X86518194Y-80705519D01*
X86546691Y-80661176D01*
X86640712Y-80567156D01*
X86732814Y-80417834D01*
X86787999Y-80251297D01*
X86798500Y-80148509D01*
X86798499Y-79523492D01*
X86787999Y-79420703D01*
X86732814Y-79254166D01*
X86640712Y-79104844D01*
X86516656Y-78980788D01*
X86423888Y-78923569D01*
X86367336Y-78888687D01*
X86367331Y-78888685D01*
X86365765Y-78888166D01*
X86200797Y-78833501D01*
X86200795Y-78833500D01*
X86098010Y-78823000D01*
X85097998Y-78823000D01*
X85097980Y-78823001D01*
X84995203Y-78833500D01*
X84988578Y-78834919D01*
X84988421Y-78834187D01*
X84958597Y-78839000D01*
X84504704Y-78839000D01*
X84437665Y-78819315D01*
X84428592Y-78812004D01*
X84428395Y-78812268D01*
X84306085Y-78720706D01*
X84306078Y-78720702D01*
X84171232Y-78670408D01*
X84171233Y-78670408D01*
X84111633Y-78664001D01*
X84111631Y-78664000D01*
X84111623Y-78664000D01*
X84111615Y-78664000D01*
X82513249Y-78664000D01*
X82446210Y-78644315D01*
X82400455Y-78591511D01*
X82389249Y-78540000D01*
X82389249Y-78537382D01*
X82389250Y-78537373D01*
X82389249Y-77864596D01*
X82408934Y-77797558D01*
X82425568Y-77776916D01*
X83152520Y-77049966D01*
X83231577Y-76913034D01*
X83272501Y-76760307D01*
X83272501Y-76616046D01*
X83292186Y-76549007D01*
X83331403Y-76510508D01*
X83390656Y-76473962D01*
X83514712Y-76349906D01*
X83606814Y-76200584D01*
X83661999Y-76034047D01*
X83672500Y-75931259D01*
X83672499Y-74881242D01*
X83661999Y-74778453D01*
X83606814Y-74611916D01*
X83514712Y-74462594D01*
X83390656Y-74338538D01*
X83242075Y-74246893D01*
X83241336Y-74246437D01*
X83241331Y-74246435D01*
X83239862Y-74245948D01*
X83074797Y-74191251D01*
X83074795Y-74191250D01*
X82972010Y-74180750D01*
X82371999Y-74180750D01*
X82371983Y-74180751D01*
X82361413Y-74181831D01*
X82292721Y-74169057D01*
X82261138Y-74146153D01*
X80900819Y-72785834D01*
X80886115Y-72758906D01*
X80869523Y-72733088D01*
X80868631Y-72726887D01*
X80867334Y-72724511D01*
X80864500Y-72698153D01*
X80864500Y-72492088D01*
X80884185Y-72425049D01*
X80936989Y-72379294D01*
X80975897Y-72368730D01*
X81041797Y-72361999D01*
X81208334Y-72306814D01*
X81357656Y-72214712D01*
X81481712Y-72090656D01*
X81573814Y-71941334D01*
X81628999Y-71774797D01*
X81639500Y-71672009D01*
X81639499Y-70821992D01*
X81628999Y-70719203D01*
X81573814Y-70552666D01*
X81481712Y-70403344D01*
X81357656Y-70279288D01*
X81233298Y-70202584D01*
X81208336Y-70187187D01*
X81208331Y-70187185D01*
X81206862Y-70186698D01*
X81041797Y-70132001D01*
X81041795Y-70132000D01*
X80939010Y-70121500D01*
X79588998Y-70121500D01*
X79588981Y-70121501D01*
X79486203Y-70132000D01*
X79486200Y-70132001D01*
X79319668Y-70187185D01*
X79319663Y-70187187D01*
X79170342Y-70279289D01*
X79046289Y-70403342D01*
X78954187Y-70552663D01*
X78954185Y-70552668D01*
X78948994Y-70568334D01*
X78899001Y-70719203D01*
X78899001Y-70719204D01*
X78899000Y-70719204D01*
X78888500Y-70821983D01*
X78888500Y-71672001D01*
X78888501Y-71672019D01*
X78899000Y-71774796D01*
X78899001Y-71774799D01*
X78927581Y-71861046D01*
X78954186Y-71941334D01*
X79046288Y-72090656D01*
X79170344Y-72214712D01*
X79319666Y-72306814D01*
X79486203Y-72361999D01*
X79552103Y-72368731D01*
X79616794Y-72395127D01*
X79656945Y-72452307D01*
X79663500Y-72492089D01*
X79663500Y-72911580D01*
X79663499Y-72911598D01*
X79663499Y-73077304D01*
X79663498Y-73077304D01*
X79704423Y-73230035D01*
X79733358Y-73280150D01*
X79733359Y-73280154D01*
X79733360Y-73280154D01*
X79783479Y-73366964D01*
X79783481Y-73366967D01*
X79902349Y-73485835D01*
X79902355Y-73485840D01*
X80406632Y-73990117D01*
X80440117Y-74051440D01*
X80435133Y-74121132D01*
X80393261Y-74177065D01*
X80357956Y-74195504D01*
X80202878Y-74246892D01*
X80202875Y-74246893D01*
X80053654Y-74338934D01*
X79929684Y-74462904D01*
X79837643Y-74612125D01*
X79837641Y-74612130D01*
X79782494Y-74778552D01*
X79782493Y-74778559D01*
X79772000Y-74881263D01*
X79772000Y-75156250D01*
X80648000Y-75156250D01*
X80715039Y-75175935D01*
X80760794Y-75228739D01*
X80772000Y-75280250D01*
X80772000Y-75406250D01*
X80898000Y-75406250D01*
X80965039Y-75425935D01*
X81010794Y-75478739D01*
X81022000Y-75530250D01*
X81022000Y-76359500D01*
X81027431Y-76364931D01*
X81042134Y-76391858D01*
X81058727Y-76417677D01*
X81059618Y-76423877D01*
X81060916Y-76426254D01*
X81063750Y-76452612D01*
X81063750Y-76508090D01*
X81044065Y-76575129D01*
X81014063Y-76607356D01*
X80981201Y-76631956D01*
X80913016Y-76723040D01*
X80857082Y-76764911D01*
X80787391Y-76769895D01*
X80726068Y-76736409D01*
X80714484Y-76723040D01*
X80646297Y-76631955D01*
X80571688Y-76576102D01*
X80529818Y-76520168D01*
X80522000Y-76476836D01*
X80522000Y-75656250D01*
X79772001Y-75656250D01*
X79772001Y-75931236D01*
X79782494Y-76033947D01*
X79837641Y-76200369D01*
X79837643Y-76200374D01*
X79899034Y-76299903D01*
X79900419Y-76304966D01*
X79904020Y-76308784D01*
X79909543Y-76338311D01*
X79917474Y-76367295D01*
X79915902Y-76372303D01*
X79916867Y-76377462D01*
X79905549Y-76405289D01*
X79896552Y-76433959D01*
X79892522Y-76437322D01*
X79890545Y-76442184D01*
X79865979Y-76459475D01*
X79842910Y-76478729D01*
X79836546Y-76480192D01*
X79833410Y-76482400D01*
X79810384Y-76486207D01*
X79798717Y-76488890D01*
X79796087Y-76489000D01*
X79690878Y-76489001D01*
X79631267Y-76495409D01*
X79629635Y-76496017D01*
X79618968Y-76496467D01*
X79616553Y-76495867D01*
X79600492Y-76495867D01*
X79596233Y-76495409D01*
X79536623Y-76489000D01*
X79536614Y-76489000D01*
X78890879Y-76489000D01*
X78890870Y-76489001D01*
X78826998Y-76495867D01*
X78800492Y-76495867D01*
X78796233Y-76495409D01*
X78736623Y-76489000D01*
X78736614Y-76489000D01*
X78090879Y-76489000D01*
X78090870Y-76489001D01*
X78026998Y-76495867D01*
X78000492Y-76495867D01*
X77996233Y-76495409D01*
X77936623Y-76489000D01*
X77936614Y-76489000D01*
X77290879Y-76489000D01*
X77290870Y-76489001D01*
X77226998Y-76495867D01*
X77200492Y-76495867D01*
X77196233Y-76495409D01*
X77136623Y-76489000D01*
X77136614Y-76489000D01*
X76490879Y-76489000D01*
X76490870Y-76489001D01*
X76426998Y-76495867D01*
X76400492Y-76495867D01*
X76396233Y-76495409D01*
X76336623Y-76489000D01*
X76336616Y-76489000D01*
X75850519Y-76489000D01*
X75783480Y-76469315D01*
X75737725Y-76416511D01*
X75727781Y-76347353D01*
X75732813Y-76325996D01*
X75787505Y-76160947D01*
X75787506Y-76160940D01*
X75797999Y-76058236D01*
X75798000Y-76058223D01*
X75798000Y-75783250D01*
X74922000Y-75783250D01*
X74854961Y-75763565D01*
X74809206Y-75710761D01*
X74798000Y-75659250D01*
X74798000Y-75533250D01*
X74672000Y-75533250D01*
X74604961Y-75513565D01*
X74559206Y-75460761D01*
X74548000Y-75409250D01*
X74548000Y-75283250D01*
X75048000Y-75283250D01*
X75797999Y-75283250D01*
X75797999Y-75008278D01*
X75797998Y-75008263D01*
X75787505Y-74905552D01*
X75732358Y-74739130D01*
X75732356Y-74739125D01*
X75640315Y-74589904D01*
X75516345Y-74465934D01*
X75367124Y-74373893D01*
X75367119Y-74373891D01*
X75200697Y-74318744D01*
X75200690Y-74318743D01*
X75097986Y-74308250D01*
X75048000Y-74308250D01*
X75048000Y-75283250D01*
X74548000Y-75283250D01*
X74548000Y-74308250D01*
X74547999Y-74308249D01*
X74498029Y-74308250D01*
X74498011Y-74308251D01*
X74395302Y-74318744D01*
X74228880Y-74373891D01*
X74228875Y-74373893D01*
X74079654Y-74465934D01*
X73955683Y-74589905D01*
X73955679Y-74589910D01*
X73953826Y-74592915D01*
X73952018Y-74594540D01*
X73951202Y-74595573D01*
X73951025Y-74595433D01*
X73901874Y-74639635D01*
X73832911Y-74650851D01*
X73768831Y-74623002D01*
X73742753Y-74592903D01*
X73742737Y-74592878D01*
X73740712Y-74589594D01*
X73616656Y-74465538D01*
X73467334Y-74373436D01*
X73300797Y-74318251D01*
X73300795Y-74318250D01*
X73198010Y-74307750D01*
X72597998Y-74307750D01*
X72597980Y-74307751D01*
X72495203Y-74318250D01*
X72495200Y-74318251D01*
X72328668Y-74373435D01*
X72328663Y-74373437D01*
X72201679Y-74451761D01*
X72183615Y-74462904D01*
X72179341Y-74465540D01*
X72175411Y-74468648D01*
X72110616Y-74494789D01*
X72041974Y-74481749D01*
X71991278Y-74433668D01*
X71974500Y-74371382D01*
X71974500Y-73706097D01*
X71994185Y-73639058D01*
X72010819Y-73618416D01*
X72262271Y-73366964D01*
X72711770Y-72917466D01*
X72790827Y-72780534D01*
X72831751Y-72627807D01*
X72831751Y-72530300D01*
X72851436Y-72463261D01*
X72904240Y-72417506D01*
X72916739Y-72412597D01*
X73000584Y-72384814D01*
X73149906Y-72292712D01*
X73273962Y-72168656D01*
X73366064Y-72019334D01*
X73421249Y-71852797D01*
X73431750Y-71750009D01*
X73431749Y-71124992D01*
X73421249Y-71022203D01*
X73366064Y-70855666D01*
X73273962Y-70706344D01*
X73180299Y-70612681D01*
X73146814Y-70551358D01*
X73151798Y-70481666D01*
X73180299Y-70437319D01*
X73214276Y-70403342D01*
X73273962Y-70343656D01*
X73366064Y-70194334D01*
X73421249Y-70027797D01*
X73431750Y-69925009D01*
X73431749Y-69299992D01*
X73430795Y-69290657D01*
X73420561Y-69190468D01*
X73421835Y-69190337D01*
X73426518Y-69127782D01*
X73468575Y-69071987D01*
X73534119Y-69047787D01*
X73542556Y-69047500D01*
X78833551Y-69047500D01*
X78900590Y-69067185D01*
X78946345Y-69119989D01*
X78951256Y-69132493D01*
X78954186Y-69141334D01*
X79046288Y-69290656D01*
X79170344Y-69414712D01*
X79319666Y-69506814D01*
X79486203Y-69561999D01*
X79588991Y-69572500D01*
X80939008Y-69572499D01*
X81041797Y-69561999D01*
X81208334Y-69506814D01*
X81357656Y-69414712D01*
X81481712Y-69290656D01*
X81573814Y-69141334D01*
X81628999Y-68974797D01*
X81639500Y-68872009D01*
X81639499Y-68021992D01*
X81628999Y-67919203D01*
X81573814Y-67752666D01*
X81481712Y-67603344D01*
X81357656Y-67479288D01*
X81208334Y-67387186D01*
X81041797Y-67332001D01*
X81041795Y-67332000D01*
X80939010Y-67321500D01*
X79588998Y-67321500D01*
X79588981Y-67321501D01*
X79486203Y-67332000D01*
X79486200Y-67332001D01*
X79319668Y-67387185D01*
X79319663Y-67387187D01*
X79170342Y-67479289D01*
X79046289Y-67603342D01*
X78954185Y-67752667D01*
X78951256Y-67761507D01*
X78911482Y-67818951D01*
X78846965Y-67845772D01*
X78833551Y-67846500D01*
X75347487Y-67846500D01*
X75280448Y-67826815D01*
X75234693Y-67774011D01*
X75224749Y-67704853D01*
X75229556Y-67684182D01*
X75255822Y-67603344D01*
X75292246Y-67491243D01*
X75325500Y-67281287D01*
X75325500Y-66068713D01*
X75292246Y-65858757D01*
X75226557Y-65656588D01*
X75130051Y-65467184D01*
X75130049Y-65467181D01*
X75130048Y-65467179D01*
X75005109Y-65295213D01*
X74854786Y-65144890D01*
X74682820Y-65019951D01*
X74493414Y-64923444D01*
X74493413Y-64923443D01*
X74493412Y-64923443D01*
X74291243Y-64857754D01*
X74291241Y-64857753D01*
X74291240Y-64857753D01*
X74129957Y-64832208D01*
X74081287Y-64824500D01*
X73868713Y-64824500D01*
X73820042Y-64832208D01*
X73658760Y-64857753D01*
X73456585Y-64923444D01*
X73267179Y-65019951D01*
X73095213Y-65144890D01*
X72944894Y-65295209D01*
X72862119Y-65409140D01*
X72806789Y-65451805D01*
X72737176Y-65457784D01*
X72675381Y-65425178D01*
X72645619Y-65379586D01*
X72618798Y-65307673D01*
X72618793Y-65307664D01*
X72532547Y-65192455D01*
X72532544Y-65192452D01*
X72417335Y-65106206D01*
X72417328Y-65106202D01*
X72282486Y-65055910D01*
X72282485Y-65055909D01*
X72282483Y-65055909D01*
X72222873Y-65049500D01*
X72222863Y-65049500D01*
X71627129Y-65049500D01*
X71627123Y-65049501D01*
X71567520Y-65055908D01*
X71559974Y-65057692D01*
X71559628Y-65056230D01*
X71498622Y-65060584D01*
X71483600Y-65056172D01*
X71482482Y-65055908D01*
X71422882Y-65049501D01*
X71422873Y-65049500D01*
X71422863Y-65049500D01*
X70827129Y-65049500D01*
X70827123Y-65049501D01*
X70767520Y-65055908D01*
X70759974Y-65057692D01*
X70759628Y-65056230D01*
X70698622Y-65060584D01*
X70683600Y-65056172D01*
X70682482Y-65055908D01*
X70622882Y-65049501D01*
X70622873Y-65049500D01*
X70622863Y-65049500D01*
X70027129Y-65049500D01*
X70027123Y-65049501D01*
X69967520Y-65055908D01*
X69959974Y-65057692D01*
X69959628Y-65056230D01*
X69898622Y-65060584D01*
X69883600Y-65056172D01*
X69882482Y-65055908D01*
X69822882Y-65049501D01*
X69822873Y-65049500D01*
X69822863Y-65049500D01*
X69227129Y-65049500D01*
X69227123Y-65049501D01*
X69167515Y-65055909D01*
X69159971Y-65057692D01*
X69159675Y-65056439D01*
X69097926Y-65060855D01*
X69084357Y-65056870D01*
X69082372Y-65056401D01*
X69022844Y-65050000D01*
X68975000Y-65050000D01*
X68975000Y-65087305D01*
X68955315Y-65154344D01*
X68925315Y-65186569D01*
X68917453Y-65192454D01*
X68917452Y-65192455D01*
X68831206Y-65307664D01*
X68831202Y-65307671D01*
X68780908Y-65442517D01*
X68774501Y-65502116D01*
X68774500Y-65502135D01*
X68774501Y-66675000D01*
X68774501Y-67847876D01*
X68780908Y-67907483D01*
X68831202Y-68042328D01*
X68831203Y-68042329D01*
X68831204Y-68042331D01*
X68917454Y-68157546D01*
X68925308Y-68163425D01*
X68967180Y-68219356D01*
X68975000Y-68262694D01*
X68975000Y-68300000D01*
X69022828Y-68300000D01*
X69022844Y-68299999D01*
X69082375Y-68293598D01*
X69089926Y-68291814D01*
X69090315Y-68293462D01*
X69109223Y-68292107D01*
X69137115Y-68286976D01*
X69147346Y-68289374D01*
X69150624Y-68289140D01*
X69153846Y-68290899D01*
X69159962Y-68292333D01*
X69159969Y-68292307D01*
X69167511Y-68294088D01*
X69167517Y-68294091D01*
X69227127Y-68300500D01*
X69234894Y-68300499D01*
X69301932Y-68320178D01*
X69347692Y-68372977D01*
X69357641Y-68442135D01*
X69328622Y-68505693D01*
X69322583Y-68512180D01*
X69263332Y-68571431D01*
X69245969Y-68580911D01*
X69231537Y-68594442D01*
X69215933Y-68597312D01*
X69202009Y-68604916D01*
X69175651Y-68607750D01*
X68841999Y-68607750D01*
X68841980Y-68607751D01*
X68739203Y-68618250D01*
X68739200Y-68618251D01*
X68572668Y-68673435D01*
X68572663Y-68673437D01*
X68423342Y-68765539D01*
X68299289Y-68889592D01*
X68207187Y-69038913D01*
X68207185Y-69038918D01*
X68197724Y-69067470D01*
X68152001Y-69205453D01*
X68152001Y-69205454D01*
X68152000Y-69205454D01*
X68141500Y-69308233D01*
X68141500Y-69933251D01*
X68141501Y-69933269D01*
X68152000Y-70036046D01*
X68152001Y-70036049D01*
X68183797Y-70132001D01*
X68207186Y-70202584D01*
X68294199Y-70343656D01*
X68299289Y-70351907D01*
X68392951Y-70445569D01*
X68426436Y-70506892D01*
X68421452Y-70576584D01*
X68392951Y-70620931D01*
X68299289Y-70714592D01*
X68207187Y-70863913D01*
X68207186Y-70863916D01*
X68152001Y-71030453D01*
X68152001Y-71030454D01*
X68152000Y-71030454D01*
X68141500Y-71133233D01*
X68141500Y-71758251D01*
X68141501Y-71758269D01*
X68152000Y-71861046D01*
X68152001Y-71861049D01*
X68178606Y-71941336D01*
X68207186Y-72027584D01*
X68299288Y-72176906D01*
X68423344Y-72300962D01*
X68572666Y-72393064D01*
X68656503Y-72420845D01*
X68713948Y-72460616D01*
X68740771Y-72525132D01*
X68741499Y-72538550D01*
X68741499Y-72596054D01*
X68741498Y-72596054D01*
X68768856Y-72698153D01*
X68782423Y-72748785D01*
X68800754Y-72780535D01*
X68811358Y-72798900D01*
X68811359Y-72798904D01*
X68811360Y-72798904D01*
X68861479Y-72885714D01*
X68861481Y-72885717D01*
X68980349Y-73004585D01*
X68980355Y-73004590D01*
X69594181Y-73618416D01*
X69627666Y-73679739D01*
X69630500Y-73706097D01*
X69630500Y-74883902D01*
X69610815Y-74950941D01*
X69594181Y-74971583D01*
X68340147Y-76225616D01*
X68340135Y-76225628D01*
X68338286Y-76227478D01*
X68338284Y-76227480D01*
X68226480Y-76339284D01*
X68217707Y-76354480D01*
X68210875Y-76366312D01*
X68210875Y-76366313D01*
X68169878Y-76437322D01*
X68147423Y-76476215D01*
X68106499Y-76628943D01*
X68106499Y-76628945D01*
X68106499Y-76797046D01*
X68106500Y-76797059D01*
X68106500Y-79373080D01*
X68106499Y-79373098D01*
X68106499Y-79538804D01*
X68106498Y-79538804D01*
X68106499Y-79538807D01*
X68147423Y-79691535D01*
X68165109Y-79722168D01*
X68165110Y-79722170D01*
X68165111Y-79722170D01*
X68188320Y-79762370D01*
X68226479Y-79828464D01*
X68226481Y-79828467D01*
X68345349Y-79947335D01*
X68345354Y-79947339D01*
X70627436Y-82229422D01*
X70640093Y-82244246D01*
X70717970Y-82351513D01*
X70719954Y-82356831D01*
X70806204Y-82472046D01*
X70806205Y-82472046D01*
X70806206Y-82472048D01*
X70897290Y-82540234D01*
X70913005Y-82561228D01*
X70931620Y-82579723D01*
X70933616Y-82588761D01*
X70939161Y-82596168D01*
X70941032Y-82622330D01*
X70946691Y-82647948D01*
X70943484Y-82656629D01*
X70944145Y-82665859D01*
X70931574Y-82688879D01*
X70922485Y-82713491D01*
X70912865Y-82723140D01*
X70910659Y-82727182D01*
X70897608Y-82738528D01*
X70897423Y-82738666D01*
X70806204Y-82806954D01*
X70805417Y-82808004D01*
X70797425Y-82814028D01*
X70772512Y-82823411D01*
X70749154Y-82836166D01*
X70734451Y-82837746D01*
X70732040Y-82838655D01*
X70730022Y-82838222D01*
X70722796Y-82839000D01*
X69528213Y-82839000D01*
X69461174Y-82819315D01*
X69415419Y-82766511D01*
X69405475Y-82697353D01*
X69410506Y-82675998D01*
X69413505Y-82666945D01*
X69413506Y-82666940D01*
X69423999Y-82564236D01*
X69424000Y-82564223D01*
X69424000Y-82514250D01*
X66974001Y-82514250D01*
X66974001Y-82564236D01*
X66984494Y-82666947D01*
X67039641Y-82833369D01*
X67039643Y-82833374D01*
X67131684Y-82982595D01*
X67255655Y-83106566D01*
X67255659Y-83106569D01*
X67258656Y-83108418D01*
X67260279Y-83110222D01*
X67261323Y-83111048D01*
X67261181Y-83111226D01*
X67305381Y-83160366D01*
X67316602Y-83229329D01*
X67288759Y-83293411D01*
X67258661Y-83319491D01*
X67255349Y-83321533D01*
X67255343Y-83321538D01*
X67131289Y-83445592D01*
X67039187Y-83594913D01*
X67039186Y-83594916D01*
X66984001Y-83761453D01*
X66984001Y-83761454D01*
X66984000Y-83761454D01*
X66973500Y-83864233D01*
X66973500Y-84464251D01*
X66973501Y-84464269D01*
X66984000Y-84567046D01*
X66984001Y-84567049D01*
X67013814Y-84657017D01*
X67039186Y-84733584D01*
X67131288Y-84882906D01*
X67255344Y-85006962D01*
X67404666Y-85099064D01*
X67571203Y-85154249D01*
X67673991Y-85164750D01*
X68724008Y-85164749D01*
X68724016Y-85164748D01*
X68724019Y-85164748D01*
X68780302Y-85158998D01*
X68826797Y-85154249D01*
X68993334Y-85099064D01*
X69142656Y-85006962D01*
X69266712Y-84882906D01*
X69358814Y-84733584D01*
X69413999Y-84567047D01*
X69424500Y-84464259D01*
X69424499Y-84163999D01*
X69444183Y-84096961D01*
X69496987Y-84051206D01*
X69548499Y-84040000D01*
X70539250Y-84040000D01*
X70606289Y-84059685D01*
X70652044Y-84112489D01*
X70663250Y-84164000D01*
X70663250Y-84562370D01*
X70663251Y-84562379D01*
X70670117Y-84626251D01*
X70670117Y-84652757D01*
X70669659Y-84657016D01*
X70669659Y-84657017D01*
X70663250Y-84716627D01*
X70663250Y-84716629D01*
X70663250Y-84716633D01*
X70663250Y-85362370D01*
X70663251Y-85362379D01*
X70670117Y-85426251D01*
X70670117Y-85452757D01*
X70669659Y-85457016D01*
X70669659Y-85457017D01*
X70663250Y-85516627D01*
X70663250Y-85516629D01*
X70663250Y-85516633D01*
X70663250Y-86162370D01*
X70663251Y-86162379D01*
X70670117Y-86226251D01*
X70670117Y-86252757D01*
X70669659Y-86257016D01*
X70669659Y-86257017D01*
X70663250Y-86316627D01*
X70663250Y-86316629D01*
X70663250Y-86316633D01*
X70663250Y-86962370D01*
X70663251Y-86962379D01*
X70670117Y-87026251D01*
X70670117Y-87052757D01*
X70669659Y-87057016D01*
X70669659Y-87057017D01*
X70663250Y-87116627D01*
X70663250Y-87116629D01*
X70663250Y-87116633D01*
X70663250Y-87762370D01*
X70663251Y-87762376D01*
X70669658Y-87821983D01*
X70719952Y-87956828D01*
X70719956Y-87956835D01*
X70806202Y-88072044D01*
X70806205Y-88072047D01*
X70921414Y-88158293D01*
X70921421Y-88158297D01*
X71056267Y-88208591D01*
X71056266Y-88208591D01*
X71063194Y-88209335D01*
X71115877Y-88215000D01*
X72711622Y-88214999D01*
X72714250Y-88214999D01*
X72781289Y-88234684D01*
X72827044Y-88287487D01*
X72838250Y-88338999D01*
X72838251Y-89779500D01*
X72818566Y-89846539D01*
X72765763Y-89892294D01*
X72714251Y-89903500D01*
X69899508Y-89903500D01*
X69832469Y-89883815D01*
X69793969Y-89844597D01*
X69753817Y-89779500D01*
X69749712Y-89772844D01*
X69625656Y-89648788D01*
X69476334Y-89556686D01*
X69309797Y-89501501D01*
X69309795Y-89501500D01*
X69207010Y-89491000D01*
X68206998Y-89491000D01*
X68206980Y-89491001D01*
X68104203Y-89501500D01*
X68104200Y-89501501D01*
X67937668Y-89556685D01*
X67937663Y-89556687D01*
X67788342Y-89648789D01*
X67664289Y-89772842D01*
X67572187Y-89922163D01*
X67572185Y-89922168D01*
X67558136Y-89964565D01*
X67517001Y-90088703D01*
X67517001Y-90088704D01*
X67517000Y-90088704D01*
X67506500Y-90191483D01*
X67506500Y-90803901D01*
X67486815Y-90870940D01*
X67470181Y-90891582D01*
X66472527Y-91889237D01*
X65512536Y-92849228D01*
X65512534Y-92849230D01*
X65456632Y-92905131D01*
X65400731Y-92961032D01*
X65400730Y-92961034D01*
X65386336Y-92985966D01*
X65321673Y-93097965D01*
X65280749Y-93250693D01*
X65280749Y-93250695D01*
X65280749Y-93418796D01*
X65280750Y-93418809D01*
X65280750Y-94344250D01*
X65261065Y-94411289D01*
X65208261Y-94457044D01*
X65156751Y-94468250D01*
X64933380Y-94468250D01*
X64933373Y-94468251D01*
X64873766Y-94474658D01*
X64738921Y-94524952D01*
X64738914Y-94524956D01*
X64623705Y-94611202D01*
X64623702Y-94611205D01*
X64537456Y-94726414D01*
X64537452Y-94726421D01*
X64487158Y-94861267D01*
X64480751Y-94920866D01*
X64480751Y-94920873D01*
X64480750Y-94920885D01*
X64480750Y-96116620D01*
X64480751Y-96116626D01*
X64487158Y-96176233D01*
X64537452Y-96311078D01*
X64537456Y-96311085D01*
X64623702Y-96426294D01*
X64623705Y-96426297D01*
X64738914Y-96512543D01*
X64738921Y-96512547D01*
X64873767Y-96562841D01*
X64873766Y-96562841D01*
X64880694Y-96563585D01*
X64933377Y-96569250D01*
X66829122Y-96569249D01*
X66888733Y-96562841D01*
X67023581Y-96512546D01*
X67138796Y-96426296D01*
X67225046Y-96311081D01*
X67275341Y-96176233D01*
X67281750Y-96116623D01*
X67281749Y-94920885D01*
X70680750Y-94920885D01*
X70680750Y-96116620D01*
X70680751Y-96116626D01*
X70687158Y-96176233D01*
X70737452Y-96311078D01*
X70737456Y-96311085D01*
X70823702Y-96426294D01*
X70823705Y-96426297D01*
X70938914Y-96512543D01*
X70938921Y-96512547D01*
X71073767Y-96562841D01*
X71073766Y-96562841D01*
X71080694Y-96563585D01*
X71133377Y-96569250D01*
X73029122Y-96569249D01*
X73088733Y-96562841D01*
X73223581Y-96512546D01*
X73338796Y-96426296D01*
X73425046Y-96311081D01*
X73475341Y-96176233D01*
X73481750Y-96116623D01*
X73481749Y-94920878D01*
X73475341Y-94861267D01*
X73451762Y-94798049D01*
X73425047Y-94726421D01*
X73425043Y-94726414D01*
X73338797Y-94611205D01*
X73338794Y-94611202D01*
X73223585Y-94524956D01*
X73223578Y-94524952D01*
X73088732Y-94474658D01*
X73088733Y-94474658D01*
X73029133Y-94468251D01*
X73029131Y-94468250D01*
X73029123Y-94468250D01*
X73029114Y-94468250D01*
X71133379Y-94468250D01*
X71133373Y-94468251D01*
X71073766Y-94474658D01*
X70938921Y-94524952D01*
X70938914Y-94524956D01*
X70823705Y-94611202D01*
X70823702Y-94611205D01*
X70737456Y-94726414D01*
X70737452Y-94726421D01*
X70687158Y-94861267D01*
X70680751Y-94920866D01*
X70680751Y-94920873D01*
X70680750Y-94920885D01*
X67281749Y-94920885D01*
X67281749Y-94920878D01*
X67275341Y-94861267D01*
X67251762Y-94798049D01*
X67225047Y-94726421D01*
X67225043Y-94726414D01*
X67138797Y-94611205D01*
X67138794Y-94611202D01*
X67023585Y-94524956D01*
X67023578Y-94524952D01*
X66888732Y-94474658D01*
X66888733Y-94474658D01*
X66829133Y-94468251D01*
X66829131Y-94468250D01*
X66829123Y-94468250D01*
X66829115Y-94468250D01*
X66605750Y-94468250D01*
X66538711Y-94448565D01*
X66492956Y-94395761D01*
X66481750Y-94344250D01*
X66481750Y-93629846D01*
X66501435Y-93562807D01*
X66518064Y-93542169D01*
X67324807Y-92735426D01*
X67386128Y-92701943D01*
X67455819Y-92706927D01*
X67511753Y-92748799D01*
X67530192Y-92784105D01*
X67572186Y-92910834D01*
X67664288Y-93060156D01*
X67788344Y-93184212D01*
X67937666Y-93276314D01*
X68104203Y-93331499D01*
X68206991Y-93342000D01*
X69207008Y-93341999D01*
X69207016Y-93341998D01*
X69207019Y-93341998D01*
X69263302Y-93336248D01*
X69309797Y-93331499D01*
X69476334Y-93276314D01*
X69625656Y-93184212D01*
X69749712Y-93060156D01*
X69793970Y-92988402D01*
X69845917Y-92941679D01*
X69899508Y-92929500D01*
X70353339Y-92929500D01*
X70420378Y-92949185D01*
X70458876Y-92988401D01*
X70536288Y-93113906D01*
X70660344Y-93237962D01*
X70809666Y-93330064D01*
X70976203Y-93385249D01*
X71078991Y-93395750D01*
X71679008Y-93395749D01*
X71679016Y-93395748D01*
X71679019Y-93395748D01*
X71735302Y-93389998D01*
X71781797Y-93385249D01*
X71948334Y-93330064D01*
X72097656Y-93237962D01*
X72221712Y-93113906D01*
X72223752Y-93110597D01*
X72225745Y-93108805D01*
X72226193Y-93108239D01*
X72226289Y-93108315D01*
X72275694Y-93063873D01*
X72344656Y-93052645D01*
X72408740Y-93080484D01*
X72434829Y-93110589D01*
X72436681Y-93113591D01*
X72436683Y-93113594D01*
X72560654Y-93237565D01*
X72709875Y-93329606D01*
X72709880Y-93329608D01*
X72876302Y-93384755D01*
X72876309Y-93384756D01*
X72979019Y-93395249D01*
X73028999Y-93395248D01*
X73029000Y-93395248D01*
X73029000Y-92294250D01*
X73048685Y-92227211D01*
X73101489Y-92181456D01*
X73153000Y-92170250D01*
X73405000Y-92170250D01*
X73472039Y-92189935D01*
X73517794Y-92242739D01*
X73529000Y-92294250D01*
X73529000Y-93395249D01*
X73578972Y-93395249D01*
X73578986Y-93395248D01*
X73681693Y-93384756D01*
X73722187Y-93371337D01*
X73737752Y-93370801D01*
X73752347Y-93365358D01*
X73771959Y-93369624D01*
X73792016Y-93368934D01*
X73806339Y-93377102D01*
X73820620Y-93380209D01*
X73848869Y-93401356D01*
X73848872Y-93401358D01*
X73926284Y-93478770D01*
X73926286Y-93478771D01*
X73933356Y-93485841D01*
X74431902Y-93984387D01*
X74465387Y-94045710D01*
X74467580Y-94084664D01*
X74466500Y-94095236D01*
X74466500Y-94695251D01*
X74466501Y-94695269D01*
X74477000Y-94798046D01*
X74477001Y-94798049D01*
X74520499Y-94929315D01*
X74532186Y-94964584D01*
X74624288Y-95113906D01*
X74748344Y-95237962D01*
X74897666Y-95330064D01*
X75064203Y-95385249D01*
X75166991Y-95395750D01*
X76217008Y-95395749D01*
X76217016Y-95395748D01*
X76217019Y-95395748D01*
X76273302Y-95389998D01*
X76319797Y-95385249D01*
X76486334Y-95330064D01*
X76635656Y-95237962D01*
X76730755Y-95142862D01*
X76792074Y-95109380D01*
X76861766Y-95114364D01*
X76917700Y-95156235D01*
X76920203Y-95159578D01*
X76920204Y-95159581D01*
X77006454Y-95274796D01*
X77038205Y-95298565D01*
X77121664Y-95361043D01*
X77121671Y-95361047D01*
X77256517Y-95411341D01*
X77256516Y-95411341D01*
X77263444Y-95412085D01*
X77316127Y-95417750D01*
X78811872Y-95417749D01*
X78871483Y-95411341D01*
X79006331Y-95361046D01*
X79090105Y-95298332D01*
X79155569Y-95273915D01*
X79223842Y-95288766D01*
X79238727Y-95298332D01*
X79321910Y-95360602D01*
X79321913Y-95360604D01*
X79456620Y-95410846D01*
X79456627Y-95410848D01*
X79516155Y-95417249D01*
X79516172Y-95417250D01*
X80014000Y-95417250D01*
X80514000Y-95417250D01*
X81011828Y-95417250D01*
X81011844Y-95417249D01*
X81071372Y-95410848D01*
X81071379Y-95410846D01*
X81206086Y-95360604D01*
X81206093Y-95360600D01*
X81321185Y-95274441D01*
X81347311Y-95239542D01*
X81403244Y-95197671D01*
X81472936Y-95192686D01*
X81534259Y-95226170D01*
X81606654Y-95298565D01*
X81755875Y-95390606D01*
X81755880Y-95390608D01*
X81922302Y-95445755D01*
X81922309Y-95445756D01*
X82025019Y-95456249D01*
X82299999Y-95456249D01*
X82800000Y-95456249D01*
X83074972Y-95456249D01*
X83074986Y-95456248D01*
X83177697Y-95445755D01*
X83344119Y-95390608D01*
X83344124Y-95390606D01*
X83493345Y-95298565D01*
X83617315Y-95174595D01*
X83709356Y-95025374D01*
X83709358Y-95025369D01*
X83764505Y-94858947D01*
X83764506Y-94858940D01*
X83774999Y-94756236D01*
X83775000Y-94756223D01*
X83775000Y-94706250D01*
X82800000Y-94706250D01*
X82800000Y-95456249D01*
X82299999Y-95456249D01*
X82300000Y-95456248D01*
X82300000Y-94706250D01*
X81319000Y-94706250D01*
X81251961Y-94686565D01*
X81206206Y-94633761D01*
X81195000Y-94582250D01*
X81195000Y-94567250D01*
X80514000Y-94567250D01*
X80514000Y-95417250D01*
X80014000Y-95417250D01*
X80014000Y-94441250D01*
X80033685Y-94374211D01*
X80086489Y-94328456D01*
X80138000Y-94317250D01*
X80264000Y-94317250D01*
X80264000Y-94191250D01*
X80283685Y-94124211D01*
X80336489Y-94078456D01*
X80388000Y-94067250D01*
X81470000Y-94067250D01*
X81537039Y-94086935D01*
X81582794Y-94139739D01*
X81594000Y-94191250D01*
X81594000Y-94206250D01*
X83774999Y-94206250D01*
X83774999Y-94156278D01*
X83774998Y-94156263D01*
X83764505Y-94053552D01*
X83709358Y-93887130D01*
X83709356Y-93887125D01*
X83617315Y-93737904D01*
X83493344Y-93613933D01*
X83493341Y-93613931D01*
X83490339Y-93612079D01*
X83488713Y-93610271D01*
X83487677Y-93609452D01*
X83487817Y-93609274D01*
X83443617Y-93560130D01*
X83432397Y-93491167D01*
X83460243Y-93427086D01*
X83490344Y-93401004D01*
X83493656Y-93398962D01*
X83617712Y-93274906D01*
X83709814Y-93125584D01*
X83764999Y-92959047D01*
X83775500Y-92856259D01*
X83775499Y-92256242D01*
X83772533Y-92227211D01*
X83764999Y-92153453D01*
X83764998Y-92153450D01*
X83727570Y-92040500D01*
X83709814Y-91986916D01*
X83617712Y-91837594D01*
X83493656Y-91713538D01*
X83344334Y-91621436D01*
X83177797Y-91566251D01*
X83177795Y-91566250D01*
X83075010Y-91555750D01*
X82024998Y-91555750D01*
X82024980Y-91555751D01*
X81922203Y-91566250D01*
X81922200Y-91566251D01*
X81755668Y-91621435D01*
X81755663Y-91621437D01*
X81606342Y-91713539D01*
X81567707Y-91752174D01*
X81506384Y-91785659D01*
X81436692Y-91780673D01*
X81380761Y-91738804D01*
X81346195Y-91692632D01*
X81321546Y-91659704D01*
X81321544Y-91659703D01*
X81321544Y-91659702D01*
X81206335Y-91573456D01*
X81206328Y-91573452D01*
X81071482Y-91523158D01*
X81071483Y-91523158D01*
X81011883Y-91516751D01*
X81011881Y-91516750D01*
X81011873Y-91516750D01*
X81011865Y-91516750D01*
X80064097Y-91516750D01*
X79997058Y-91497065D01*
X79976416Y-91480431D01*
X79097665Y-90601680D01*
X79064180Y-90540357D01*
X79069164Y-90470665D01*
X79111036Y-90414732D01*
X79176500Y-90390315D01*
X79185330Y-90389999D01*
X79536622Y-90389999D01*
X79596233Y-90383591D01*
X79596236Y-90383589D01*
X79600494Y-90383132D01*
X79627004Y-90383132D01*
X79631264Y-90383589D01*
X79631267Y-90383591D01*
X79690877Y-90390000D01*
X80336622Y-90389999D01*
X80396233Y-90383591D01*
X80396236Y-90383589D01*
X80400494Y-90383132D01*
X80427004Y-90383132D01*
X80431264Y-90383589D01*
X80431267Y-90383591D01*
X80490877Y-90390000D01*
X81136622Y-90389999D01*
X81196233Y-90383591D01*
X81196236Y-90383589D01*
X81200494Y-90383132D01*
X81227004Y-90383132D01*
X81231264Y-90383589D01*
X81231267Y-90383591D01*
X81290877Y-90390000D01*
X81936622Y-90389999D01*
X81996233Y-90383591D01*
X82131081Y-90333296D01*
X82246296Y-90247046D01*
X82332546Y-90131831D01*
X82382841Y-89996983D01*
X82389250Y-89937373D01*
X82389250Y-89422236D01*
X84500001Y-89422236D01*
X84510494Y-89524947D01*
X84565641Y-89691369D01*
X84565643Y-89691374D01*
X84657684Y-89840595D01*
X84781654Y-89964565D01*
X84930875Y-90056606D01*
X84930880Y-90056608D01*
X85097302Y-90111755D01*
X85097309Y-90111756D01*
X85200019Y-90122249D01*
X85474999Y-90122249D01*
X85975000Y-90122249D01*
X86249972Y-90122249D01*
X86249986Y-90122248D01*
X86352697Y-90111755D01*
X86519119Y-90056608D01*
X86519124Y-90056606D01*
X86668345Y-89964565D01*
X86792315Y-89840595D01*
X86884356Y-89691374D01*
X86884358Y-89691369D01*
X86939505Y-89524947D01*
X86939506Y-89524940D01*
X86949999Y-89422236D01*
X86950000Y-89422223D01*
X86950000Y-89372250D01*
X85975000Y-89372250D01*
X85975000Y-90122249D01*
X85474999Y-90122249D01*
X85475000Y-90122248D01*
X85475000Y-89372250D01*
X84500001Y-89372250D01*
X84500001Y-89422236D01*
X82389250Y-89422236D01*
X82389249Y-88872250D01*
X82389249Y-88338500D01*
X82408933Y-88271461D01*
X82461737Y-88225706D01*
X82513249Y-88214500D01*
X83063750Y-88214500D01*
X83063750Y-87689500D01*
X82063750Y-87689500D01*
X82063750Y-87765000D01*
X82044065Y-87832039D01*
X81991261Y-87877794D01*
X81939750Y-87889000D01*
X81290879Y-87889000D01*
X81290870Y-87889001D01*
X81226998Y-87895867D01*
X81200492Y-87895867D01*
X81196233Y-87895409D01*
X81136623Y-87889000D01*
X81136614Y-87889000D01*
X80490879Y-87889000D01*
X80490870Y-87889001D01*
X80426998Y-87895867D01*
X80400492Y-87895867D01*
X80396233Y-87895409D01*
X80336623Y-87889000D01*
X80336614Y-87889000D01*
X79690879Y-87889000D01*
X79690870Y-87889001D01*
X79626998Y-87895867D01*
X79600492Y-87895867D01*
X79596233Y-87895409D01*
X79536623Y-87889000D01*
X79536614Y-87889000D01*
X78890879Y-87889000D01*
X78890870Y-87889001D01*
X78826998Y-87895867D01*
X78800492Y-87895867D01*
X78796233Y-87895409D01*
X78736623Y-87889000D01*
X78736614Y-87889000D01*
X78090879Y-87889000D01*
X78090870Y-87889001D01*
X78026998Y-87895867D01*
X78000492Y-87895867D01*
X77996233Y-87895409D01*
X77936623Y-87889000D01*
X77936614Y-87889000D01*
X77290879Y-87889000D01*
X77290870Y-87889001D01*
X77226998Y-87895867D01*
X77200492Y-87895867D01*
X77196233Y-87895409D01*
X77136623Y-87889000D01*
X77136614Y-87889000D01*
X76490879Y-87889000D01*
X76490875Y-87889001D01*
X76442910Y-87894157D01*
X76431267Y-87895409D01*
X76431266Y-87895409D01*
X76424654Y-87896120D01*
X76398143Y-87896119D01*
X76336592Y-87889500D01*
X76263750Y-87889500D01*
X76263750Y-87908090D01*
X76244065Y-87975129D01*
X76232106Y-87990833D01*
X76223901Y-87999990D01*
X76181204Y-88031954D01*
X76109747Y-88127407D01*
X76106106Y-88131472D01*
X76080852Y-88147116D01*
X76057082Y-88164911D01*
X76051483Y-88165311D01*
X76046711Y-88168268D01*
X76017012Y-88167776D01*
X75987391Y-88169895D01*
X75982464Y-88167204D01*
X75976851Y-88167112D01*
X75952133Y-88150642D01*
X75926068Y-88136409D01*
X75919641Y-88128992D01*
X75918706Y-88128369D01*
X75918303Y-88127448D01*
X75914484Y-88123040D01*
X75846298Y-88031956D01*
X75846296Y-88031955D01*
X75846296Y-88031954D01*
X75813436Y-88007355D01*
X75771567Y-87951421D01*
X75763750Y-87908090D01*
X75763750Y-87889500D01*
X75690916Y-87889500D01*
X75629345Y-87896119D01*
X75602838Y-87896119D01*
X75593568Y-87895122D01*
X75536623Y-87889000D01*
X75536615Y-87889000D01*
X74890879Y-87889000D01*
X74890870Y-87889001D01*
X74826998Y-87895867D01*
X74800492Y-87895867D01*
X74796233Y-87895409D01*
X74736623Y-87889000D01*
X74736614Y-87889000D01*
X74090879Y-87889000D01*
X74090870Y-87889001D01*
X74026998Y-87895867D01*
X74000492Y-87895867D01*
X73996233Y-87895409D01*
X73936623Y-87889000D01*
X73936616Y-87889000D01*
X73288249Y-87889000D01*
X73221210Y-87869315D01*
X73175455Y-87816511D01*
X73164249Y-87765000D01*
X73164249Y-87762382D01*
X73164250Y-87762373D01*
X73164249Y-87116628D01*
X73157841Y-87057017D01*
X73157839Y-87057013D01*
X73157382Y-87052755D01*
X73157382Y-87026245D01*
X73157839Y-87021986D01*
X73157841Y-87021983D01*
X73164250Y-86962373D01*
X73164249Y-86316628D01*
X73157841Y-86257017D01*
X73157839Y-86257013D01*
X73157382Y-86252755D01*
X73157382Y-86226245D01*
X73157839Y-86221986D01*
X73157841Y-86221983D01*
X73164250Y-86162373D01*
X73164249Y-85516628D01*
X73157841Y-85457017D01*
X73157839Y-85457013D01*
X73157382Y-85452755D01*
X73157382Y-85426245D01*
X73157839Y-85421986D01*
X73157841Y-85421983D01*
X73164250Y-85362373D01*
X73164249Y-84716628D01*
X73157841Y-84657017D01*
X73157839Y-84657013D01*
X73157382Y-84652755D01*
X73157382Y-84626245D01*
X73157839Y-84621986D01*
X73157841Y-84621983D01*
X73164250Y-84562373D01*
X73164249Y-83916628D01*
X73157841Y-83857017D01*
X73157839Y-83857013D01*
X73157382Y-83852755D01*
X73157382Y-83826245D01*
X73157839Y-83821986D01*
X73157841Y-83821983D01*
X73164250Y-83762373D01*
X73164249Y-83116628D01*
X73157841Y-83057017D01*
X73157840Y-83057016D01*
X73157130Y-83050404D01*
X73157131Y-83023893D01*
X73163749Y-82962342D01*
X73163750Y-82962327D01*
X73163750Y-82889500D01*
X73145159Y-82889500D01*
X73078120Y-82869815D01*
X73062416Y-82857856D01*
X73053261Y-82849654D01*
X73021296Y-82806954D01*
X72925836Y-82735493D01*
X72921777Y-82731856D01*
X72906135Y-82706608D01*
X72888338Y-82682833D01*
X72887937Y-82677233D01*
X72884981Y-82672461D01*
X72885472Y-82642763D01*
X72883354Y-82613141D01*
X72886044Y-82608214D01*
X72886137Y-82602601D01*
X72902603Y-82577888D01*
X72916839Y-82551818D01*
X72924257Y-82545389D01*
X72924880Y-82544456D01*
X72925798Y-82544054D01*
X72930202Y-82540238D01*
X73021296Y-82472046D01*
X73045893Y-82439187D01*
X73101826Y-82397318D01*
X73145159Y-82389500D01*
X73163750Y-82389500D01*
X73163750Y-82316672D01*
X73163749Y-82316660D01*
X73157130Y-82255104D01*
X73157130Y-82228590D01*
X73157840Y-82221985D01*
X73157841Y-82221983D01*
X73164250Y-82162373D01*
X73164249Y-81516628D01*
X73157841Y-81457017D01*
X73157839Y-81457013D01*
X73157382Y-81452755D01*
X73157382Y-81426245D01*
X73157839Y-81421986D01*
X73157841Y-81421983D01*
X73164250Y-81362373D01*
X73164249Y-80716628D01*
X73157841Y-80657017D01*
X73157839Y-80657013D01*
X73157382Y-80652755D01*
X73157382Y-80626245D01*
X73157839Y-80621986D01*
X73157841Y-80621983D01*
X73164250Y-80562373D01*
X73164249Y-79916628D01*
X73157841Y-79857017D01*
X73157839Y-79857013D01*
X73157382Y-79852755D01*
X73157382Y-79826245D01*
X73157839Y-79821986D01*
X73157841Y-79821983D01*
X73164250Y-79762373D01*
X73164249Y-79116628D01*
X73164249Y-79116627D01*
X73164249Y-79113999D01*
X73183933Y-79046960D01*
X73236737Y-79001205D01*
X73288249Y-78989999D01*
X73290868Y-78989999D01*
X73290877Y-78990000D01*
X73936622Y-78989999D01*
X73996233Y-78983591D01*
X73996233Y-78983590D01*
X74002846Y-78982880D01*
X74029357Y-78982881D01*
X74090907Y-78989499D01*
X74090922Y-78989500D01*
X74163750Y-78989500D01*
X74163750Y-78970909D01*
X74183435Y-78903870D01*
X74195394Y-78888166D01*
X74203595Y-78879011D01*
X74246296Y-78847046D01*
X74317756Y-78751586D01*
X74321394Y-78747527D01*
X74346641Y-78731885D01*
X74370417Y-78714088D01*
X74376016Y-78713687D01*
X74380789Y-78710731D01*
X74410486Y-78711222D01*
X74440108Y-78709104D01*
X74445034Y-78711794D01*
X74450649Y-78711887D01*
X74475366Y-78728356D01*
X74501431Y-78742589D01*
X74507859Y-78750007D01*
X74508794Y-78750630D01*
X74509195Y-78751549D01*
X74513011Y-78755952D01*
X74571578Y-78834187D01*
X74581205Y-78847047D01*
X74614059Y-78871641D01*
X74655931Y-78927574D01*
X74663750Y-78970909D01*
X74663750Y-78989500D01*
X74736578Y-78989500D01*
X74736589Y-78989499D01*
X74798145Y-78982880D01*
X74824659Y-78982880D01*
X74831264Y-78983590D01*
X74831267Y-78983591D01*
X74890877Y-78990000D01*
X75536622Y-78989999D01*
X75596233Y-78983591D01*
X75596236Y-78983589D01*
X75600494Y-78983132D01*
X75627004Y-78983132D01*
X75631264Y-78983589D01*
X75631267Y-78983591D01*
X75690877Y-78990000D01*
X76336622Y-78989999D01*
X76396233Y-78983591D01*
X76396236Y-78983589D01*
X76400494Y-78983132D01*
X76427004Y-78983132D01*
X76431264Y-78983589D01*
X76431267Y-78983591D01*
X76490877Y-78990000D01*
X77136622Y-78989999D01*
X77196233Y-78983591D01*
X77196236Y-78983589D01*
X77200494Y-78983132D01*
X77227004Y-78983132D01*
X77231264Y-78983589D01*
X77231267Y-78983591D01*
X77290877Y-78990000D01*
X77936622Y-78989999D01*
X77996233Y-78983591D01*
X77996236Y-78983589D01*
X78000494Y-78983132D01*
X78027004Y-78983132D01*
X78031264Y-78983589D01*
X78031267Y-78983591D01*
X78090877Y-78990000D01*
X78736622Y-78989999D01*
X78796233Y-78983591D01*
X78796236Y-78983589D01*
X78800494Y-78983132D01*
X78827004Y-78983132D01*
X78831264Y-78983589D01*
X78831267Y-78983591D01*
X78890877Y-78990000D01*
X79536622Y-78989999D01*
X79596233Y-78983591D01*
X79596236Y-78983589D01*
X79600494Y-78983132D01*
X79627004Y-78983132D01*
X79631264Y-78983589D01*
X79631267Y-78983591D01*
X79690877Y-78990000D01*
X80336622Y-78989999D01*
X80396233Y-78983591D01*
X80396233Y-78983590D01*
X80402846Y-78982880D01*
X80429357Y-78982881D01*
X80490907Y-78989499D01*
X80490922Y-78989500D01*
X80563750Y-78989500D01*
X80563750Y-78970909D01*
X80583435Y-78903870D01*
X80595394Y-78888166D01*
X80603595Y-78879011D01*
X80646296Y-78847046D01*
X80717756Y-78751586D01*
X80721394Y-78747527D01*
X80746641Y-78731885D01*
X80770417Y-78714088D01*
X80776016Y-78713687D01*
X80780789Y-78710731D01*
X80810486Y-78711222D01*
X80840108Y-78709104D01*
X80845034Y-78711794D01*
X80850649Y-78711887D01*
X80875366Y-78728356D01*
X80901431Y-78742589D01*
X80907859Y-78750007D01*
X80908794Y-78750630D01*
X80909195Y-78751549D01*
X80913011Y-78755952D01*
X80971578Y-78834187D01*
X80981205Y-78847047D01*
X81014059Y-78871641D01*
X81055931Y-78927574D01*
X81063750Y-78970909D01*
X81063750Y-78989500D01*
X81136578Y-78989500D01*
X81136589Y-78989499D01*
X81198145Y-78982880D01*
X81224659Y-78982880D01*
X81231264Y-78983590D01*
X81231267Y-78983591D01*
X81290877Y-78990000D01*
X81936622Y-78989999D01*
X81939250Y-78989999D01*
X82006289Y-79009683D01*
X82052044Y-79062487D01*
X82063250Y-79113999D01*
X82063250Y-79762370D01*
X82063251Y-79762379D01*
X82070117Y-79826251D01*
X82070117Y-79852757D01*
X82069659Y-79857016D01*
X82069659Y-79857017D01*
X82063250Y-79916627D01*
X82063250Y-79916629D01*
X82063250Y-79916633D01*
X82063250Y-80562370D01*
X82063251Y-80562379D01*
X82070117Y-80626251D01*
X82070117Y-80652757D01*
X82069659Y-80657016D01*
X82069659Y-80657017D01*
X82063250Y-80716627D01*
X82063250Y-80716629D01*
X82063250Y-80716633D01*
X82063250Y-81362370D01*
X82063251Y-81362379D01*
X82070117Y-81426251D01*
X82070117Y-81452757D01*
X82069659Y-81457016D01*
X82069659Y-81457017D01*
X82063250Y-81516627D01*
X82063250Y-81516629D01*
X82063250Y-81516633D01*
X82063250Y-82162370D01*
X82063251Y-82162379D01*
X82070117Y-82226251D01*
X82070117Y-82252757D01*
X82069659Y-82257016D01*
X82069659Y-82257017D01*
X82063250Y-82316627D01*
X82063250Y-82316632D01*
X82063250Y-82316633D01*
X82063250Y-82962370D01*
X82063251Y-82962379D01*
X82070117Y-83026251D01*
X82070117Y-83052757D01*
X82069659Y-83057016D01*
X82069659Y-83057017D01*
X82063250Y-83116627D01*
X82063250Y-83116629D01*
X82063250Y-83116633D01*
X82063250Y-83762370D01*
X82063251Y-83762379D01*
X82070117Y-83826251D01*
X82070117Y-83852757D01*
X82069659Y-83857016D01*
X82069659Y-83857017D01*
X82063250Y-83916627D01*
X82063250Y-83916629D01*
X82063250Y-83916633D01*
X82063250Y-84562370D01*
X82063251Y-84562379D01*
X82070117Y-84626251D01*
X82070117Y-84652757D01*
X82069659Y-84657016D01*
X82069659Y-84657017D01*
X82063250Y-84716627D01*
X82063250Y-84716629D01*
X82063250Y-84716633D01*
X82063250Y-85362370D01*
X82063251Y-85362379D01*
X82070117Y-85426251D01*
X82070117Y-85452757D01*
X82069659Y-85457016D01*
X82069659Y-85457017D01*
X82063250Y-85516627D01*
X82063250Y-85516629D01*
X82063250Y-85516633D01*
X82063250Y-86162370D01*
X82063251Y-86162379D01*
X82070117Y-86226251D01*
X82070117Y-86252757D01*
X82069659Y-86257016D01*
X82069659Y-86257017D01*
X82063250Y-86316627D01*
X82063250Y-86316629D01*
X82063250Y-86316633D01*
X82063250Y-86962370D01*
X82063251Y-86962376D01*
X82070369Y-87028592D01*
X82070369Y-87055099D01*
X82063750Y-87116669D01*
X82063750Y-87189500D01*
X82082341Y-87189500D01*
X82149380Y-87209185D01*
X82181605Y-87239186D01*
X82206204Y-87272046D01*
X82252393Y-87306623D01*
X82321414Y-87358293D01*
X82321421Y-87358297D01*
X82456267Y-87408591D01*
X82456266Y-87408591D01*
X82463194Y-87409335D01*
X82515877Y-87415000D01*
X83237896Y-87414999D01*
X83252828Y-87415902D01*
X83454691Y-87440403D01*
X83480177Y-87451370D01*
X83506789Y-87459185D01*
X83511815Y-87464986D01*
X83518870Y-87468022D01*
X83534381Y-87491027D01*
X83552544Y-87511989D01*
X83554464Y-87520814D01*
X83557929Y-87525954D01*
X83558193Y-87537957D01*
X83563750Y-87563500D01*
X83563750Y-88214500D01*
X84111578Y-88214500D01*
X84111594Y-88214499D01*
X84171122Y-88208098D01*
X84171129Y-88208096D01*
X84305836Y-88157854D01*
X84305843Y-88157850D01*
X84420936Y-88071690D01*
X84492354Y-87976290D01*
X84505459Y-87966479D01*
X84514951Y-87953145D01*
X84532850Y-87945975D01*
X84548288Y-87934419D01*
X84564615Y-87933251D01*
X84579810Y-87927165D01*
X84598744Y-87930810D01*
X84617980Y-87929435D01*
X84633005Y-87937407D01*
X84648420Y-87940375D01*
X84674544Y-87959446D01*
X84677174Y-87960842D01*
X84678240Y-87961858D01*
X84781344Y-88064962D01*
X84795710Y-88073823D01*
X84805112Y-88082784D01*
X84816351Y-88102242D01*
X84831379Y-88118949D01*
X84833488Y-88131913D01*
X84840058Y-88143286D01*
X84838993Y-88165731D01*
X84842603Y-88187911D01*
X84837369Y-88199956D01*
X84836747Y-88213077D01*
X84823714Y-88231385D01*
X84814761Y-88251994D01*
X84799842Y-88264923D01*
X84796229Y-88269999D01*
X84792056Y-88271670D01*
X84784665Y-88278076D01*
X84781660Y-88279929D01*
X84781655Y-88279933D01*
X84657684Y-88403904D01*
X84565643Y-88553125D01*
X84565641Y-88553130D01*
X84510494Y-88719552D01*
X84510493Y-88719559D01*
X84500000Y-88822263D01*
X84500000Y-88872250D01*
X86949999Y-88872250D01*
X86949999Y-88822278D01*
X86949998Y-88822263D01*
X86939505Y-88719552D01*
X86884358Y-88553130D01*
X86884356Y-88553125D01*
X86792315Y-88403904D01*
X86668344Y-88279933D01*
X86668341Y-88279931D01*
X86665339Y-88278079D01*
X86663713Y-88276271D01*
X86662677Y-88275452D01*
X86662817Y-88275274D01*
X86618617Y-88226130D01*
X86607397Y-88157167D01*
X86635243Y-88093086D01*
X86665344Y-88067004D01*
X86668656Y-88064962D01*
X86792712Y-87940906D01*
X86884814Y-87791584D01*
X86939999Y-87625047D01*
X86950500Y-87522259D01*
X86950499Y-86922242D01*
X86939999Y-86819453D01*
X86884814Y-86652916D01*
X86792712Y-86503594D01*
X86668656Y-86379538D01*
X86519334Y-86287436D01*
X86352797Y-86232251D01*
X86352795Y-86232250D01*
X86250016Y-86221750D01*
X86250009Y-86221750D01*
X85625098Y-86221750D01*
X85595657Y-86213105D01*
X85565671Y-86206582D01*
X85560655Y-86202827D01*
X85558059Y-86202065D01*
X85537417Y-86185431D01*
X85508167Y-86156181D01*
X85474682Y-86094858D01*
X85479666Y-86025166D01*
X85521538Y-85969233D01*
X85587002Y-85944816D01*
X85595848Y-85944500D01*
X87202903Y-85944500D01*
X87269942Y-85964185D01*
X87290584Y-85980819D01*
X88065602Y-86755838D01*
X88099087Y-86817161D01*
X88101919Y-86844296D01*
X88013318Y-100976277D01*
X87993213Y-101043192D01*
X87940123Y-101088615D01*
X87889320Y-101099500D01*
X64303543Y-101099500D01*
X64284138Y-101097972D01*
X64222551Y-101088214D01*
X64185659Y-101076226D01*
X64138896Y-101052398D01*
X64107512Y-101029595D01*
X64070404Y-100992487D01*
X64047601Y-100961103D01*
X64023772Y-100914337D01*
X64023044Y-100912098D01*
X64022212Y-100911165D01*
X64011786Y-100877450D01*
X64010690Y-100870535D01*
X64009165Y-100850762D01*
X64016222Y-98620885D01*
X64480750Y-98620885D01*
X64480750Y-99816620D01*
X64480751Y-99816626D01*
X64487158Y-99876233D01*
X64537452Y-100011078D01*
X64537456Y-100011085D01*
X64623702Y-100126294D01*
X64623705Y-100126297D01*
X64738914Y-100212543D01*
X64738921Y-100212547D01*
X64873767Y-100262841D01*
X64873766Y-100262841D01*
X64880694Y-100263585D01*
X64933377Y-100269250D01*
X66829122Y-100269249D01*
X66888733Y-100262841D01*
X67023581Y-100212546D01*
X67138796Y-100126296D01*
X67225046Y-100011081D01*
X67275341Y-99876233D01*
X67281750Y-99816623D01*
X67281750Y-99816594D01*
X70681250Y-99816594D01*
X70687651Y-99876122D01*
X70687653Y-99876129D01*
X70737895Y-100010836D01*
X70737899Y-100010843D01*
X70824059Y-100125937D01*
X70824062Y-100125940D01*
X70939156Y-100212100D01*
X70939163Y-100212104D01*
X71073870Y-100262346D01*
X71073877Y-100262348D01*
X71133405Y-100268749D01*
X71133422Y-100268750D01*
X71831250Y-100268750D01*
X72331250Y-100268750D01*
X73029078Y-100268750D01*
X73029094Y-100268749D01*
X73088622Y-100262348D01*
X73088629Y-100262346D01*
X73223336Y-100212104D01*
X73223343Y-100212100D01*
X73338437Y-100125940D01*
X73338440Y-100125937D01*
X73424600Y-100010843D01*
X73424604Y-100010836D01*
X73474846Y-99876129D01*
X73474848Y-99876122D01*
X73481249Y-99816594D01*
X73481250Y-99816577D01*
X73481250Y-99468750D01*
X72331250Y-99468750D01*
X72331250Y-100268750D01*
X71831250Y-100268750D01*
X71831250Y-99468750D01*
X70681250Y-99468750D01*
X70681250Y-99816594D01*
X67281750Y-99816594D01*
X67281749Y-98620905D01*
X70681250Y-98620905D01*
X70681250Y-98968750D01*
X71831250Y-98968750D01*
X72331250Y-98968750D01*
X73481250Y-98968750D01*
X73481250Y-98620922D01*
X73481249Y-98620905D01*
X73474848Y-98561377D01*
X73474846Y-98561370D01*
X73424604Y-98426663D01*
X73424600Y-98426656D01*
X73338440Y-98311562D01*
X73338437Y-98311559D01*
X73223343Y-98225399D01*
X73223336Y-98225395D01*
X73088629Y-98175153D01*
X73088622Y-98175151D01*
X73029094Y-98168750D01*
X72331250Y-98168750D01*
X72331250Y-98968750D01*
X71831250Y-98968750D01*
X71831250Y-98168750D01*
X71133405Y-98168750D01*
X71073877Y-98175151D01*
X71073870Y-98175153D01*
X70939163Y-98225395D01*
X70939156Y-98225399D01*
X70824062Y-98311559D01*
X70824059Y-98311562D01*
X70737899Y-98426656D01*
X70737895Y-98426663D01*
X70687653Y-98561370D01*
X70687651Y-98561377D01*
X70681250Y-98620905D01*
X67281749Y-98620905D01*
X67281749Y-98620878D01*
X67275341Y-98561267D01*
X67225134Y-98426656D01*
X67225047Y-98426421D01*
X67225043Y-98426414D01*
X67138797Y-98311205D01*
X67138794Y-98311202D01*
X67023585Y-98224956D01*
X67023578Y-98224952D01*
X66888732Y-98174658D01*
X66888733Y-98174658D01*
X66829133Y-98168251D01*
X66829131Y-98168250D01*
X66829123Y-98168250D01*
X66829114Y-98168250D01*
X64933379Y-98168250D01*
X64933373Y-98168251D01*
X64873766Y-98174658D01*
X64738921Y-98224952D01*
X64738914Y-98224956D01*
X64623705Y-98311202D01*
X64623702Y-98311205D01*
X64537456Y-98426414D01*
X64537452Y-98426421D01*
X64487158Y-98561267D01*
X64480751Y-98620866D01*
X64480751Y-98620873D01*
X64480750Y-98620885D01*
X64016222Y-98620885D01*
X64068932Y-81964263D01*
X66974000Y-81964263D01*
X66974000Y-82014250D01*
X67949000Y-82014250D01*
X68449000Y-82014250D01*
X69423999Y-82014250D01*
X69423999Y-81964278D01*
X69423998Y-81964263D01*
X69413505Y-81861552D01*
X69358358Y-81695130D01*
X69358356Y-81695125D01*
X69266315Y-81545904D01*
X69142345Y-81421934D01*
X68993124Y-81329893D01*
X68993119Y-81329891D01*
X68826697Y-81274744D01*
X68826690Y-81274743D01*
X68723986Y-81264250D01*
X68449000Y-81264250D01*
X68449000Y-82014250D01*
X67949000Y-82014250D01*
X67949000Y-81264250D01*
X67674029Y-81264250D01*
X67674012Y-81264251D01*
X67571302Y-81274744D01*
X67404880Y-81329891D01*
X67404875Y-81329893D01*
X67255654Y-81421934D01*
X67131684Y-81545904D01*
X67039643Y-81695125D01*
X67039641Y-81695130D01*
X66984494Y-81861552D01*
X66984493Y-81861559D01*
X66974000Y-81964263D01*
X64068932Y-81964263D01*
X64119234Y-66068713D01*
X65324500Y-66068713D01*
X65324500Y-67281286D01*
X65357753Y-67491239D01*
X65357753Y-67491241D01*
X65357754Y-67491243D01*
X65394177Y-67603342D01*
X65423444Y-67693414D01*
X65519951Y-67882820D01*
X65644890Y-68054786D01*
X65795213Y-68205109D01*
X65967179Y-68330048D01*
X65967181Y-68330049D01*
X65967184Y-68330051D01*
X66156588Y-68426557D01*
X66358757Y-68492246D01*
X66568713Y-68525500D01*
X66568714Y-68525500D01*
X66781286Y-68525500D01*
X66781287Y-68525500D01*
X66991243Y-68492246D01*
X67193412Y-68426557D01*
X67382816Y-68330051D01*
X67432990Y-68293598D01*
X67554786Y-68205109D01*
X67554788Y-68205106D01*
X67554792Y-68205104D01*
X67705104Y-68054792D01*
X67788232Y-67940375D01*
X67843561Y-67897710D01*
X67913174Y-67891731D01*
X67974970Y-67924336D01*
X68004732Y-67969928D01*
X68031645Y-68042086D01*
X68031649Y-68042093D01*
X68117809Y-68157187D01*
X68117812Y-68157190D01*
X68232906Y-68243350D01*
X68232913Y-68243354D01*
X68367620Y-68293596D01*
X68367627Y-68293598D01*
X68427155Y-68299999D01*
X68427172Y-68300000D01*
X68475000Y-68300000D01*
X68475000Y-65050000D01*
X68427155Y-65050000D01*
X68367627Y-65056401D01*
X68367620Y-65056403D01*
X68232913Y-65106645D01*
X68232906Y-65106649D01*
X68117812Y-65192809D01*
X68117809Y-65192812D01*
X68031649Y-65307906D01*
X68031646Y-65307911D01*
X68004732Y-65380072D01*
X67962860Y-65436005D01*
X67897396Y-65460422D01*
X67829123Y-65445570D01*
X67788232Y-65409623D01*
X67705109Y-65295214D01*
X67705105Y-65295209D01*
X67554786Y-65144890D01*
X67382820Y-65019951D01*
X67193414Y-64923444D01*
X67193413Y-64923443D01*
X67193412Y-64923443D01*
X66991243Y-64857754D01*
X66991241Y-64857753D01*
X66991240Y-64857753D01*
X66829957Y-64832208D01*
X66781287Y-64824500D01*
X66568713Y-64824500D01*
X66520042Y-64832208D01*
X66358760Y-64857753D01*
X66156585Y-64923444D01*
X65967179Y-65019951D01*
X65795213Y-65144890D01*
X65644890Y-65295213D01*
X65519951Y-65467179D01*
X65423444Y-65656585D01*
X65357753Y-65858760D01*
X65324500Y-66068713D01*
X64119234Y-66068713D01*
X64134612Y-61209309D01*
X64154508Y-61142336D01*
X64207457Y-61096748D01*
X64257303Y-61085712D01*
X65277989Y-61074968D01*
X65345231Y-61093946D01*
X65391539Y-61146265D01*
X65402210Y-61215315D01*
X65397224Y-61237278D01*
X65357754Y-61358755D01*
X65357753Y-61358759D01*
X65324500Y-61568713D01*
X65324500Y-62781286D01*
X65357753Y-62991239D01*
X65423444Y-63193414D01*
X65519951Y-63382820D01*
X65644890Y-63554786D01*
X65795213Y-63705109D01*
X65967179Y-63830048D01*
X65967181Y-63830049D01*
X65967184Y-63830051D01*
X66156588Y-63926557D01*
X66358757Y-63992246D01*
X66568713Y-64025500D01*
X66568714Y-64025500D01*
X66781286Y-64025500D01*
X66781287Y-64025500D01*
X66991243Y-63992246D01*
X67193412Y-63926557D01*
X67382816Y-63830051D01*
X67404789Y-63814086D01*
X67554786Y-63705109D01*
X67554788Y-63705106D01*
X67554792Y-63705104D01*
X67705104Y-63554792D01*
X67705106Y-63554788D01*
X67705109Y-63554786D01*
X67830048Y-63382820D01*
X67830047Y-63382820D01*
X67830051Y-63382816D01*
X67926557Y-63193412D01*
X67992246Y-62991243D01*
X68025500Y-62781287D01*
X68025500Y-61568713D01*
X67992246Y-61358757D01*
X67943259Y-61207994D01*
X67941265Y-61138155D01*
X67977345Y-61078322D01*
X68040046Y-61047494D01*
X68059880Y-61045685D01*
X72603044Y-60997862D01*
X72670285Y-61016840D01*
X72716593Y-61069159D01*
X72727264Y-61138209D01*
X72722278Y-61160173D01*
X72657753Y-61358759D01*
X72624500Y-61568713D01*
X72624500Y-62781286D01*
X72657753Y-62991239D01*
X72723444Y-63193414D01*
X72819951Y-63382820D01*
X72944890Y-63554786D01*
X73095213Y-63705109D01*
X73267179Y-63830048D01*
X73267181Y-63830049D01*
X73267184Y-63830051D01*
X73456588Y-63926557D01*
X73658757Y-63992246D01*
X73868713Y-64025500D01*
X73868714Y-64025500D01*
X74081286Y-64025500D01*
X74081287Y-64025500D01*
X74291243Y-63992246D01*
X74493412Y-63926557D01*
X74682816Y-63830051D01*
X74704789Y-63814086D01*
X74854786Y-63705109D01*
X74854788Y-63705106D01*
X74854792Y-63705104D01*
X75005104Y-63554792D01*
X75005106Y-63554788D01*
X75005109Y-63554786D01*
X75130048Y-63382820D01*
X75130047Y-63382820D01*
X75130051Y-63382816D01*
X75226557Y-63193412D01*
X75292246Y-62991243D01*
X75325500Y-62781287D01*
X75325500Y-61568713D01*
X75292246Y-61358757D01*
X75226557Y-61156588D01*
X75226555Y-61156585D01*
X75226555Y-61156583D01*
X75222908Y-61149426D01*
X75210010Y-61080757D01*
X75236284Y-61016016D01*
X75293390Y-60975757D01*
X75332080Y-60969135D01*
X88138907Y-60834327D01*
X88206149Y-60853305D01*
G37*
%TD.AperFunction*%
%TA.AperFunction,Conductor*%
G36*
X77446007Y-90687673D02*
G01*
X77476242Y-90691288D01*
X77481117Y-90694588D01*
X77484697Y-90695293D01*
X77490735Y-90701098D01*
X77515111Y-90717596D01*
X78277681Y-91480166D01*
X78311166Y-91541489D01*
X78314000Y-91567847D01*
X78314000Y-92493250D01*
X78294315Y-92560289D01*
X78241511Y-92606044D01*
X78190000Y-92617250D01*
X78064000Y-92617250D01*
X78064000Y-92743250D01*
X78044315Y-92810289D01*
X77991511Y-92856044D01*
X77940000Y-92867250D01*
X76858000Y-92867250D01*
X76790961Y-92847565D01*
X76745206Y-92794761D01*
X76734556Y-92745806D01*
X76734000Y-92745250D01*
X75816000Y-92745250D01*
X75748961Y-92725565D01*
X75703206Y-92672761D01*
X75692000Y-92621250D01*
X75692000Y-92369250D01*
X75711685Y-92302211D01*
X75764489Y-92256456D01*
X75816000Y-92245250D01*
X76923000Y-92245250D01*
X76990039Y-92264935D01*
X77035794Y-92317739D01*
X77046443Y-92366693D01*
X77047000Y-92367250D01*
X77814000Y-92367250D01*
X77814000Y-91517250D01*
X77316155Y-91517250D01*
X77256627Y-91523651D01*
X77256620Y-91523653D01*
X77121913Y-91573895D01*
X77121906Y-91573899D01*
X77006812Y-91660059D01*
X76936590Y-91753863D01*
X76880656Y-91795733D01*
X76810964Y-91800717D01*
X76749643Y-91767232D01*
X76696503Y-91714092D01*
X76663018Y-91652769D01*
X76668002Y-91583077D01*
X76696501Y-91538732D01*
X77071256Y-91163978D01*
X77071261Y-91163974D01*
X77081464Y-91153770D01*
X77081466Y-91153770D01*
X77193270Y-91041966D01*
X77249397Y-90944750D01*
X77272327Y-90905035D01*
X77308872Y-90768644D01*
X77310415Y-90764246D01*
X77328174Y-90739518D01*
X77344019Y-90713524D01*
X77348358Y-90711415D01*
X77351174Y-90707496D01*
X77379483Y-90696295D01*
X77406866Y-90682994D01*
X77411657Y-90683566D01*
X77416144Y-90681792D01*
X77446007Y-90687673D01*
G37*
%TD.AperFunction*%
%TD*%
M02*
