%TF.GenerationSoftware,KiCad,Pcbnew,9.0.0*%
%TF.CreationDate,2026-08-14T17:38:38-03:00*%
%TF.ProjectId,PCB_Keyboard,5043425f-4b65-4796-926f-6172642e6b69,rev?*%
%TF.SameCoordinates,Original*%
%TF.FileFunction,Paste,Top*%
%TF.FilePolarity,Positive*%
%FSLAX46Y46*%
G04 Gerber Fmt 4.6, Leading zero omitted, Abs format (unit mm)*
G04 Created by KiCad (PCBNEW 9.0.0) date 2026-08-14 17:38:38*
%MOMM*%
%LPD*%
G01*
G04 APERTURE LIST*
G04 Aperture macros list*
%AMRoundRect*
0 Rectangle with rounded corners*
0 $1 Rounding radius*
0 $2 $3 $4 $5 $6 $7 $8 $9 X,Y pos of 4 corners*
0 Add a 4 corners polygon primitive as box body*
4,1,4,$2,$3,$4,$5,$6,$7,$8,$9,$2,$3,0*
0 Add four circle primitives for the rounded corners*
1,1,$1+$1,$2,$3*
1,1,$1+$1,$4,$5*
1,1,$1+$1,$6,$7*
1,1,$1+$1,$8,$9*
0 Add four rect primitives between the rounded corners*
20,1,$1+$1,$2,$3,$4,$5,0*
20,1,$1+$1,$4,$5,$6,$7,0*
20,1,$1+$1,$6,$7,$8,$9,0*
20,1,$1+$1,$8,$9,$2,$3,0*%
G04 Aperture macros list end*
%ADD10RoundRect,0.225000X0.375000X-0.225000X0.375000X0.225000X-0.375000X0.225000X-0.375000X-0.225000X0*%
%ADD11RoundRect,0.250000X0.250000X0.475000X-0.250000X0.475000X-0.250000X-0.475000X0.250000X-0.475000X0*%
%ADD12RoundRect,0.250000X-0.450000X0.262500X-0.450000X-0.262500X0.450000X-0.262500X0.450000X0.262500X0*%
%ADD13RoundRect,0.250000X-0.250000X-0.475000X0.250000X-0.475000X0.250000X0.475000X-0.250000X0.475000X0*%
%ADD14RoundRect,0.250000X0.475000X-0.250000X0.475000X0.250000X-0.475000X0.250000X-0.475000X-0.250000X0*%
%ADD15R,1.400000X1.200000*%
%ADD16R,0.500000X2.250000*%
%ADD17R,1.800000X1.100000*%
%ADD18RoundRect,0.250000X-0.475000X0.250000X-0.475000X-0.250000X0.475000X-0.250000X0.475000X0.250000X0*%
%ADD19R,1.500000X0.550000*%
%ADD20R,0.550000X1.500000*%
%ADD21RoundRect,0.250000X0.625000X-0.375000X0.625000X0.375000X-0.625000X0.375000X-0.625000X-0.375000X0*%
G04 APERTURE END LIST*
D10*
%TO.C,D1*%
X106299000Y-74547000D03*
X106299000Y-71247000D03*
%TD*%
D11*
%TO.C,C4*%
X82672000Y-75406250D03*
X80772000Y-75406250D03*
%TD*%
D12*
%TO.C,R1*%
X85598000Y-79836000D03*
X85598000Y-81661000D03*
%TD*%
D13*
%TO.C,C2*%
X72898000Y-75533250D03*
X74798000Y-75533250D03*
%TD*%
D12*
%TO.C,R2*%
X72231250Y-69612500D03*
X72231250Y-71437500D03*
%TD*%
D13*
%TO.C,C5*%
X71379000Y-92170250D03*
X73279000Y-92170250D03*
%TD*%
D10*
%TO.C,D4*%
X125984000Y-94760000D03*
X125984000Y-91460000D03*
%TD*%
D12*
%TO.C,R3*%
X69342000Y-69620750D03*
X69342000Y-71445750D03*
%TD*%
D14*
%TO.C,C1*%
X68199000Y-84164250D03*
X68199000Y-82264250D03*
%TD*%
D15*
%TO.C,Y1*%
X80264000Y-92617250D03*
X78064000Y-92617250D03*
X78064000Y-94317250D03*
X80264000Y-94317250D03*
%TD*%
D16*
%TO.C,USB1*%
X68725000Y-66675000D03*
X69525000Y-66675000D03*
X70325000Y-66675000D03*
X71125000Y-66675000D03*
X71925000Y-66675000D03*
%TD*%
D10*
%TO.C,D3*%
X106299000Y-94614000D03*
X106299000Y-91314000D03*
%TD*%
D17*
%TO.C,SW1*%
X72081250Y-99218750D03*
X65881250Y-95518750D03*
X72081250Y-95518750D03*
X65881250Y-99218750D03*
%TD*%
D18*
%TO.C,C3*%
X85725000Y-87222250D03*
X85725000Y-89122250D03*
%TD*%
D10*
%TO.C,D2*%
X125984000Y-74293000D03*
X125984000Y-70993000D03*
%TD*%
D19*
%TO.C,U1*%
X71913750Y-79439500D03*
X71913750Y-80239500D03*
X71913750Y-81039500D03*
X71913750Y-81839500D03*
X71913750Y-82639500D03*
X71913750Y-83439500D03*
X71913750Y-84239500D03*
X71913750Y-85039500D03*
X71913750Y-85839500D03*
X71913750Y-86639500D03*
X71913750Y-87439500D03*
D20*
X73613750Y-89139500D03*
X74413750Y-89139500D03*
X75213750Y-89139500D03*
X76013750Y-89139500D03*
X76813750Y-89139500D03*
X77613750Y-89139500D03*
X78413750Y-89139500D03*
X79213750Y-89139500D03*
X80013750Y-89139500D03*
X80813750Y-89139500D03*
X81613750Y-89139500D03*
D19*
X83313750Y-87439500D03*
X83313750Y-86639500D03*
X83313750Y-85839500D03*
X83313750Y-85039500D03*
X83313750Y-84239500D03*
X83313750Y-83439500D03*
X83313750Y-82639500D03*
X83313750Y-81839500D03*
X83313750Y-81039500D03*
X83313750Y-80239500D03*
X83313750Y-79439500D03*
D20*
X81613750Y-77739500D03*
X80813750Y-77739500D03*
X80013750Y-77739500D03*
X79213750Y-77739500D03*
X78413750Y-77739500D03*
X77613750Y-77739500D03*
X76813750Y-77739500D03*
X76013750Y-77739500D03*
X75213750Y-77739500D03*
X74413750Y-77739500D03*
X73613750Y-77739500D03*
%TD*%
D21*
%TO.C,F1*%
X80264000Y-71247000D03*
X80264000Y-68447000D03*
%TD*%
D14*
%TO.C,C6*%
X82550000Y-94456250D03*
X82550000Y-92556250D03*
%TD*%
D18*
%TO.C,C7*%
X75692000Y-92495250D03*
X75692000Y-94395250D03*
%TD*%
D12*
%TO.C,R4*%
X68707000Y-90504000D03*
X68707000Y-92329000D03*
%TD*%
M02*
