M48
; DRILL file {KiCad 9.0.0} date 2026-08-14T17:39:37-0300
; FORMAT={-:-/ absolute / metric / decimal}
; #@! TF.CreationDate,2026-08-14T17:39:37-03:00
; #@! TF.GenerationSoftware,Kicad,Pcbnew,9.0.0
; #@! TF.FileFunction,Plated,1,2,PTH
FMAT,2
METRIC
; #@! TA.AperFunction,Plated,PTH,ViaDrill
T1C0.300
; #@! TA.AperFunction,Plated,PTH,ComponentDrill
T2C0.700
; #@! TA.AperFunction,Plated,PTH,ComponentDrill
T3C1.524
%
G90
G05
T1
X73.787Y-93.98
X77.851Y-91.313
X78.994Y-72.771
X83.947Y-91.059
X85.852Y-75.946
X86.36Y-82.931
X93.599Y-76.2
X95.885Y-83.693
X110.49Y-74.549
X123.698Y-74.549
T3
X94.361Y-68.453
X94.361Y-88.265
X95.671Y-66.993
X95.671Y-86.805
X100.671Y-66.493
X100.671Y-86.305
X100.711Y-65.913
X100.711Y-85.725
X114.014Y-68.421
X114.046Y-88.265
X115.324Y-66.961
X115.356Y-86.805
X120.324Y-66.461
X120.356Y-86.305
X120.364Y-65.881
X120.396Y-85.725
T2
G00X66.675Y-61.575
M15
G01X66.675Y-62.775
M16
G05
G00X66.675Y-66.075
M15
G01X66.675Y-67.275
M16
G05
G00X73.975Y-61.575
M15
G01X73.975Y-62.775
M16
G05
G00X73.975Y-66.075
M15
G01X73.975Y-67.275
M16
G05
M30
